<svg id="SvgjsSvg1001" width="288" height="288" xmlns="http://www.w3.org/2000/svg" version="1.1" xmlns:xlink="http://www.w3.org/1999/xlink" xmlns:svgjs="http://svgjs.com/svgjs"><defs id="SvgjsDefs1002"></defs><g id="SvgjsG1008" transform="matrix(1,0,0,1,0,0)"><svg xmlns="http://www.w3.org/2000/svg" enable-background="new 0 0 59 59" viewBox="0 0 59 59" width="288" height="288"><path d="M6.923 56c-1.545 0-3-2.253-3-4 0-.552-.448-1-1-1s-1 .448-1 1c0 2.774 2.184 6 5 6 .552 0 1-.448 1-1S7.475 56 6.923 56zM51.492 2c1.498 0 3.43 2.216 3.43 4.57 0 .552.448 1 1 1s1-.448 1-1c0-3.315-2.69-6.57-5.43-6.57-.552 0-1 .448-1 1S50.94 2 51.492 2zM57.923 45c0-.552-.448-1-1-1s-1 .448-1 1c0 5.233-4.29 10-9 10-.552 0-1 .448-1 1s.448 1 1 1C52.782 57 57.923 51.393 57.923 45zM57.923 53c-.552 0-1 .448-1 1 0 1.157-1.373 3-3 3-.552 0-1 .448-1 1s.448 1 1 1c2.693 0 5-2.75 5-5C58.923 53.448 58.475 53 57.923 53zM38.171 57.141c1.619-.605 3.196-1.358 4.717-2.237.125-.042.241-.108.344-.2 2.301-1.368 4.465-3.034 6.412-4.981 3.114-3.114 5.45-6.683 6.999-10.426.019-.039.036-.075.05-.115.909-2.222 1.539-4.505 1.888-6.79.01-.063.027-.123.025-.186.335-2.301.383-4.6.143-6.844.004-.076-.01-.148-.024-.223-.606-5.231-2.788-10.134-6.607-13.953-.688-.689-1.433-1.331-2.26-1.963-.605-.794-1.262-1.558-1.983-2.279C43.49 2.556 37.452.14 30.874.14c-7.789 0-15.638 3.381-21.534 9.277C-1.967 20.725-3.077 38.012 6.865 47.955c.7.7 1.456 1.331 2.235 1.928.646.85 1.303 1.61 2.007 2.314C15.495 56.584 21.533 59 28.111 59c3.37 0 6.751-.636 9.98-1.831C38.119 57.159 38.145 57.153 38.171 57.141zM31.262 56.796l-2.488-2.488c1.513-.271 3.011-.665 4.482-1.176l2.661 2.661C34.387 56.265 32.83 56.601 31.262 56.796zM56.841 30.048l-2.426-2.426c.025-.186.05-.371.072-.557.054-.479.096-.958.125-1.436.017-.275.025-.548.033-.822.009-.277.013-.553.014-.829 0-.116.007-.233.006-.349l2.126 2.126C56.931 27.167 56.947 28.603 56.841 30.048zM55.353 37.045l-2.678-2.678c.139-.36.273-.722.398-1.085.055-.159.105-.319.157-.479.138-.426.266-.853.385-1.281.045-.163.094-.326.136-.49.087-.336.163-.673.237-1.01l2.536 2.536C56.265 34.063 55.872 35.564 55.353 37.045zM50.623 38.675c.314-.546.606-1.1.884-1.657.059-.119.116-.238.173-.357.05-.103.101-.206.15-.309l2.724 2.724c-.419.955-.897 1.894-1.426 2.817l-2.772-2.772c.064-.107.13-.213.192-.321C50.572 38.758 50.599 38.717 50.623 38.675zM48.273 42.203c.341-.446.667-.898.981-1.356l2.789 2.789c-.557.832-1.154 1.647-1.805 2.438l-2.811-2.811c.27-.324.531-.653.786-.985C48.233 42.252 48.254 42.228 48.273 42.203zM42.71 52.688l-2.797-2.797c.85-.545 1.679-1.132 2.483-1.76l2.819 2.819C44.404 51.573 43.569 52.154 42.71 52.688zM35.3 52.348c.967-.415 1.917-.882 2.846-1.396l2.764 2.764c-.948.502-1.918.948-2.903 1.339L35.3 52.348zM46.765 49.672l-2.825-2.825c.498-.441.989-.892 1.462-1.366.237-.237.463-.481.692-.723l2.817 2.817c-.229.244-.441.497-.68.735C47.757 48.783 47.265 49.233 46.765 49.672zM53.396 15.915c1.28 1.962 2.186 4.121 2.766 6.383l-1.71-1.71c-.02-.158-.047-.314-.07-.47-.038-.26-.075-.52-.121-.778-.084-.47-.181-.936-.291-1.398-.05-.207-.107-.41-.162-.616-.095-.356-.198-.71-.309-1.061C53.461 16.149 53.435 16.03 53.396 15.915zM10.754 10.832c5.523-5.523 12.857-8.691 20.12-8.691 6.044 0 11.58 2.208 15.589 6.217.561.561 1.082 1.148 1.566 1.757l.26.344c.02.026.039.053.059.079.441.585.847 1.188 1.22 1.808.008.014.016.028.024.042.366.612.699 1.241.999 1.883.014.029.026.06.039.089.284.614.537 1.241.761 1.878.019.056.039.111.058.167.195.57.359 1.15.507 1.735.034.136.073.27.105.407.129.551.229 1.109.317 1.67.03.194.063.387.088.583.07.534.118 1.072.151 1.613.014.221.026.443.034.666.019.535.02 1.073.004 1.612-.007.221-.018.441-.03.662-.031.553-.076 1.108-.143 1.663-.023.194-.054.388-.081.582-.084.588-.181 1.175-.306 1.761-.029.138-.066.275-.097.412-.135.59-.286 1.178-.462 1.764-.026.088-.05.177-.077.265-.201.648-.43 1.291-.68 1.93-.037.096-.071.192-.11.287-.258.64-.543 1.273-.85 1.9-.048.098-.094.196-.143.293-.314.625-.654 1.242-1.016 1.852-.055.093-.111.185-.167.277-.373.611-.768 1.213-1.189 1.804-.058.081-.118.161-.177.242-.436.599-.893 1.188-1.378 1.762-.048.057-.099.112-.148.169-.512.597-1.046 1.182-1.612 1.748-.345.345-.697.681-1.056 1.008-5.381 4.896-12.248 7.679-19.053 7.679-.215 0-.425-.018-.639-.024-.462-.012-.923-.026-1.378-.063-.29-.024-.574-.064-.86-.098-.401-.048-.801-.099-1.196-.167-.271-.046-.539-.101-.806-.157-.414-.087-.823-.184-1.229-.293-.237-.063-.473-.126-.707-.197-.452-.137-.895-.293-1.334-.458-.18-.067-.363-.127-.54-.199-.607-.246-1.202-.515-1.78-.814-.104-.054-.202-.119-.305-.174-.46-.248-.912-.509-1.352-.79-.244-.157-.479-.328-.717-.495-.977-.684-1.908-1.434-2.757-2.283C-.883 37.378.227 21.359 10.754 10.832zM16.374 53.63c.272.084.547.162.823.237.432.117.868.22 1.309.313.107.023.211.055.318.076l1.382 1.382c-1.539-.557-2.999-1.277-4.353-2.158C16.023 53.537 16.201 53.577 16.374 53.63zM24.035 56.64l-1.957-1.957c.356.024.716.032 1.076.042.24.006.474.033.715.033.804 0 1.608-.045 2.411-.116l2.345 2.345C28.453 56.99 28.282 57 28.111 57 26.72 57 25.36 56.869 24.035 56.64z" fill="#ffbf66" class="color000 svgShape"></path><path d="M12.403,38.39l6.014-1.468c0.043-0.01,0.077-0.055,0.088-0.115l0.209-1.135c-2.145-1.718-3.367-4.104-3.639-7.106
		c-1.089-0.791-1.608-2.141-1.309-3.529l0.276-1.28c0.236-1.093,0.983-2.062,1.996-2.622c0.419-1.214,0.958-2.336,1.606-3.339
		c0.282-0.437,0.511-0.762,0.698-1.025c0.564-0.798,0.564-0.798,0.547-2.049c-0.007-0.503,0.01-1.016,0.049-1.525
		C18.991,12.525,19.569,12,20.255,12c0.407,0,0.784,0.197,1.008,0.528c0.133,0.196,0.417,0.514,1.014,0.918
		c1.104,0.746,2.791,1.079,4.705,0.952c0.293-0.02,0.595-0.03,0.902-0.03c9.284,0.009,11.737,4.493,12.083,8.483
		c1.344,0.892,2.078,2.279,1.939,3.734l-0.16,1.674c-0.169,1.775-1.599,3.212-3.555,3.644c-1.634,3.323-4.245,5.477-7.604,6.277
		l-0.176,1.261c-0.016,0.112,0.05,0.298,0.232,0.438l7.92,6.112c1.417-0.979,2.763-2.094,4.01-3.341
		c4.694-4.694,7.547-10.686,8.034-16.874c0.491-6.246-1.483-11.931-5.559-16.006C41.417,6.14,36.383,4.14,30.874,4.14
		c-6.736,0-13.554,2.955-18.705,8.106C7.474,16.94,4.621,22.932,4.135,29.12C3.644,35.366,4.846,38.924,8.923,43
		C9.392,40.883,10.512,38.944,12.403,38.39z" fill="#ffbf66" class="color000 svgShape"></path></svg></g></svg>