<svg id="svg" version="1.1" xmlns="http://www.w3.org/2000/svg" xmlns:xlink="http://www.w3.org/1999/xlink" width="400" height="400" viewBox="0, 0, 400,400"><g id="svgg"><path id="path0" d="M260.142 36.974 C 259.670 37.428,258.902 38.070,258.436 38.400 C 257.928 38.759,257.363 39.879,257.029 41.189 C 256.645 42.698,256.117 43.660,255.335 44.283 L 254.200 45.188 253.955 53.294 C 253.821 57.752,253.686 61.463,253.655 61.540 C 253.625 61.616,253.015 62.225,252.300 62.893 L 251.000 64.108 250.894 101.871 L 250.788 139.634 252.000 140.741 C 253.671 142.267,254.000 143.769,254.000 149.864 L 254.000 155.133 255.523 156.766 C 257.398 158.777,258.668 158.893,260.386 157.213 L 261.600 156.027 261.600 147.434 L 261.600 138.841 260.406 137.720 C 258.458 135.892,258.399 134.828,258.410 101.645 C 258.420 69.093,258.437 68.774,260.358 66.587 L 261.600 65.172 261.602 58.686 C 261.605 51.449,261.877 49.968,263.606 47.793 C 265.646 45.226,265.265 37.600,263.097 37.600 C 262.852 37.600,262.280 37.273,261.826 36.874 C 261.026 36.170,260.973 36.173,260.142 36.974 M135.178 55.826 C 134.892 56.171,134.150 56.716,133.529 57.037 C 131.887 57.886,131.789 64.412,133.389 66.314 C 135.005 68.234,135.200 69.327,135.200 76.445 C 135.200 83.171,135.210 83.247,136.196 84.162 C 138.439 86.240,138.400 85.703,138.400 114.561 C 138.400 142.645,138.395 142.726,136.487 144.294 L 135.400 145.188 135.280 154.826 L 135.159 164.464 136.960 166.265 C 139.020 168.325,139.847 168.342,141.700 166.362 L 142.800 165.187 142.802 158.694 C 142.805 151.449,143.077 149.968,144.806 147.793 L 146.000 146.290 146.000 114.374 L 146.000 82.458 145.064 81.721 C 143.337 80.363,143.073 79.299,142.878 72.887 C 142.696 66.914,142.666 66.742,141.566 65.357 C 140.484 63.996,140.131 62.651,139.900 59.023 C 139.811 57.625,139.596 57.323,138.000 56.355 C 135.833 55.040,135.831 55.040,135.178 55.826 M341.872 155.357 C 341.745 155.688,341.092 156.242,340.421 156.589 C 339.750 156.936,338.346 158.070,337.301 159.110 L 335.400 161.000 335.194 168.800 C 334.984 176.747,334.836 177.520,333.237 178.966 C 332.434 179.693,332.400 180.098,332.400 188.807 C 332.400 199.390,332.088 201.658,330.394 203.406 L 329.200 204.638 329.198 212.019 C 329.195 221.245,328.825 223.775,327.272 225.194 L 326.125 226.241 325.902 232.620 C 325.673 239.152,325.270 240.997,323.982 241.406 C 323.067 241.696,322.813 242.773,322.803 246.400 C 322.794 250.100,322.234 252.221,320.955 253.407 C 320.101 254.198,319.326 257.596,319.203 261.086 C 319.201 261.133,318.685 261.763,318.055 262.486 C 317.294 263.360,316.812 264.466,316.618 265.788 C 316.396 267.290,316.009 268.075,315.033 268.994 C 314.187 269.792,313.570 270.899,313.244 272.206 C 312.929 273.464,312.312 274.598,311.573 275.277 C 310.928 275.870,310.392 276.770,310.382 277.277 C 310.354 278.792,309.324 281.238,308.461 281.842 C 308.018 282.153,307.366 283.400,307.013 284.613 C 306.609 286.003,305.937 287.206,305.194 287.868 C 304.547 288.445,303.909 289.258,303.777 289.674 C 303.645 290.090,302.845 290.867,302.000 291.400 C 301.155 291.933,300.356 292.709,300.224 293.124 C 300.092 293.539,299.547 294.078,299.012 294.322 C 298.476 294.566,297.773 295.278,297.449 295.905 C 297.125 296.531,296.394 297.257,295.824 297.516 C 295.254 297.776,294.596 298.411,294.360 298.928 C 294.125 299.445,293.407 300.178,292.766 300.557 C 291.938 301.046,291.600 301.558,291.599 302.323 C 291.595 304.747,281.359 315.588,278.248 316.462 C 276.666 316.907,275.712 317.646,272.554 320.876 C 271.518 321.936,270.554 322.472,269.137 322.776 C 267.873 323.047,266.843 323.571,266.276 324.230 C 265.517 325.112,264.848 325.329,261.595 325.751 C 258.220 326.188,257.666 326.377,256.590 327.461 C 255.498 328.562,255.051 328.709,251.990 328.971 C 248.976 329.228,248.463 329.392,247.364 330.447 C 245.380 332.351,243.631 332.449,213.982 332.318 C 185.424 332.192,185.808 332.218,183.939 330.271 C 183.092 329.389,182.590 329.273,178.800 329.085 C 174.181 328.857,172.904 328.508,171.616 327.125 C 170.817 326.266,170.338 326.182,164.878 325.948 C 158.868 325.690,157.228 325.334,155.772 323.971 C 155.089 323.332,151.463 322.531,148.714 322.412 C 148.557 322.406,147.837 321.884,147.114 321.253 C 146.391 320.623,144.802 319.818,143.581 319.466 C 142.361 319.113,140.935 318.369,140.412 317.813 C 139.889 317.256,139.177 316.799,138.830 316.798 C 137.329 316.792,135.027 315.855,134.125 314.881 C 133.546 314.257,132.302 313.610,131.075 313.296 C 129.846 312.982,128.507 312.285,127.782 311.583 C 127.111 310.932,126.250 310.400,125.868 310.400 C 124.859 310.400,122.339 309.280,121.405 308.417 C 120.962 308.007,119.795 307.458,118.811 307.196 C 117.407 306.824,116.313 306.017,113.741 303.461 C 110.058 299.799,107.912 298.000,107.229 298.000 C 106.459 298.000,103.600 296.411,103.600 295.984 C 103.600 295.764,102.790 295.013,101.800 294.315 C 100.810 293.617,100.000 292.908,100.000 292.739 C 100.000 292.571,98.662 291.086,97.027 289.440 C 93.851 286.243,93.200 285.325,93.200 284.040 C 93.200 283.593,91.850 281.680,90.201 279.788 C 87.957 277.215,87.139 275.962,86.957 274.821 C 86.795 273.808,86.259 272.866,85.367 272.025 C 84.319 271.036,83.963 270.316,83.758 268.765 C 83.577 267.403,83.215 266.555,82.610 266.080 C 81.249 265.009,80.869 263.998,80.565 260.635 C 80.319 257.920,80.140 257.397,79.136 256.459 C 77.815 255.225,77.206 252.475,77.202 247.729 C 77.200 245.115,77.107 244.785,76.160 244.040 C 74.847 243.007,74.422 241.179,74.410 236.513 C 74.400 232.838,74.396 232.822,73.000 231.427 C 72.230 230.657,71.576 229.886,71.546 229.713 C 71.516 229.541,71.381 227.252,71.246 224.626 L 71.000 219.853 69.013 218.687 C 67.778 217.962,66.970 217.691,66.876 217.971 C 66.794 218.219,66.023 218.780,65.163 219.219 L 63.600 220.016 63.600 226.689 L 63.600 233.362 64.794 234.594 C 66.205 236.049,66.800 238.601,66.800 243.193 C 66.800 245.838,66.921 246.384,67.655 247.038 C 69.126 248.348,69.600 250.122,69.600 254.312 C 69.600 258.168,69.625 258.275,70.803 259.402 C 72.199 260.740,72.795 262.557,72.798 265.486 C 72.800 267.244,72.981 267.758,73.952 268.750 C 74.668 269.483,75.294 270.735,75.609 272.064 C 75.908 273.330,76.571 274.689,77.235 275.400 C 80.868 279.292,81.616 280.279,81.842 281.481 C 82.131 283.022,85.846 287.955,89.835 292.095 C 90.415 292.698,91.143 293.925,91.453 294.823 C 92.192 296.969,94.344 299.139,96.258 299.667 C 97.102 299.900,98.164 300.475,98.618 300.945 C 99.925 302.298,102.461 304.520,104.172 305.813 C 105.037 306.466,107.480 308.747,109.602 310.883 C 112.966 314.268,113.708 314.821,115.396 315.199 C 116.494 315.445,117.915 316.145,118.680 316.816 C 119.421 317.467,120.387 318.000,120.827 318.000 C 122.126 318.000,124.422 319.120,125.232 320.149 C 125.741 320.797,126.580 321.196,127.824 321.383 C 129.094 321.573,130.118 322.070,131.137 322.991 C 132.163 323.918,133.178 324.408,134.476 324.602 C 135.795 324.800,136.635 325.212,137.345 326.009 C 138.151 326.914,138.808 327.186,140.675 327.389 C 144.189 327.771,144.569 327.894,145.811 329.046 C 146.721 329.889,147.648 330.212,150.264 330.598 C 152.167 330.880,154.020 331.407,154.636 331.843 C 156.988 333.507,157.355 333.588,162.574 333.594 C 167.611 333.600,171.200 334.422,171.200 335.571 C 171.200 336.296,173.508 336.800,176.832 336.800 C 180.498 336.800,182.805 337.393,183.459 338.504 C 184.323 339.972,184.933 340.000,215.548 340.000 C 247.242 340.000,246.887 340.020,248.925 338.076 C 249.960 337.088,250.387 336.985,254.325 336.777 C 258.399 336.561,260.000 336.241,260.000 335.643 C 260.000 334.879,262.823 333.857,265.749 333.562 C 267.686 333.367,269.148 333.016,269.392 332.688 C 270.048 331.806,271.694 330.917,273.177 330.643 C 274.145 330.465,275.460 329.531,277.609 327.495 C 285.473 320.043,287.216 318.597,288.937 318.095 C 291.051 317.479,292.226 316.289,293.120 313.857 C 293.870 311.818,296.461 308.855,305.440 299.765 C 308.761 296.403,311.279 293.510,311.566 292.728 C 312.342 290.606,312.858 289.799,315.354 286.804 C 317.642 284.058,317.717 283.894,318.004 280.964 C 318.320 277.729,318.204 277.929,322.339 273.539 C 324.017 271.759,324.107 271.538,324.421 268.421 C 324.702 265.631,324.920 264.969,325.938 263.810 C 326.949 262.658,327.169 261.997,327.414 259.384 C 327.660 256.761,327.878 256.111,328.903 254.944 C 329.926 253.778,330.150 253.113,330.421 250.419 C 330.755 247.104,331.149 246.003,332.550 244.469 C 333.339 243.605,333.414 242.979,333.600 235.794 C 333.798 228.110,333.808 228.042,334.851 226.925 C 336.722 224.922,336.800 224.480,336.800 215.852 C 336.800 207.138,336.970 206.113,338.725 204.275 L 339.800 203.150 340.000 193.675 L 340.200 184.200 341.500 182.440 L 342.800 180.680 342.802 174.240 C 342.805 167.049,343.079 165.566,344.806 163.393 C 346.686 161.026,346.350 156.400,344.297 156.400 C 344.052 156.400,343.458 156.030,342.977 155.578 C 342.243 154.889,342.065 154.854,341.872 155.357 " stroke="none" fill="#080808" fill-rule="evenodd"></path><path id="path1" d="M0.000 200.000 L 0.000 400.000 200.000 400.000 L 400.000 400.000 400.000 200.000 L 400.000 0.000 200.000 0.000 L 0.000 0.000 0.000 200.000 M264.294 34.635 C 266.478 36.041,267.365 40.620,266.615 46.616 C 266.348 48.754,266.100 49.181,264.229 50.716 C 263.702 51.148,263.598 52.350,263.590 58.116 C 263.580 65.539,263.252 67.898,262.122 68.676 C 261.725 68.949,261.175 69.366,260.900 69.602 C 260.508 69.939,260.400 76.881,260.400 101.802 L 260.400 133.572 261.621 134.963 C 263.428 137.021,263.605 138.173,263.553 147.597 C 263.487 159.498,263.261 160.063,258.531 160.155 C 253.266 160.257,252.400 158.938,252.400 150.821 C 252.400 145.265,252.381 145.145,251.363 144.126 C 249.141 141.904,249.200 143.059,249.200 102.009 C 249.200 62.551,249.214 62.213,250.884 60.738 C 252.108 59.658,252.400 57.759,252.400 50.876 C 252.400 44.117,252.536 43.427,254.204 41.759 C 254.701 41.263,255.320 39.969,255.580 38.884 C 256.609 34.593,260.946 32.479,264.294 34.635 M139.232 53.417 C 140.739 54.196,141.600 56.286,141.600 59.163 C 141.600 61.299,141.731 61.718,142.643 62.503 C 144.272 63.905,144.516 64.963,144.766 71.728 C 144.973 77.320,145.086 78.105,145.738 78.470 C 148.007 79.739,147.982 79.348,147.982 114.200 C 147.981 149.640,147.978 149.677,145.443 150.518 C 145.148 150.616,144.923 153.401,144.770 158.833 C 144.480 169.112,144.246 169.600,139.607 169.600 C 133.913 169.600,133.600 168.849,133.600 155.194 C 133.600 144.026,133.687 143.335,135.280 141.938 C 136.705 140.688,136.800 138.945,136.800 114.076 C 136.800 89.093,136.756 88.314,135.304 87.459 C 134.036 86.713,133.600 84.532,133.597 78.913 C 133.592 71.745,133.296 69.285,132.406 69.002 C 129.782 68.169,129.601 57.465,132.163 54.668 C 134.296 52.340,136.422 51.964,139.232 53.417 M345.494 153.435 C 348.586 155.426,349.005 163.205,346.161 165.810 L 344.800 167.057 344.790 173.828 C 344.778 182.494,344.385 184.207,342.243 184.918 C 341.941 185.019,341.736 188.346,341.600 195.362 L 341.400 205.659 340.000 206.800 L 338.600 207.942 338.400 217.616 L 338.200 227.290 336.802 228.455 L 335.405 229.621 335.281 237.111 C 335.151 244.970,334.894 246.385,333.417 247.352 C 332.618 247.876,332.490 248.369,332.302 251.658 C 332.095 255.301,332.063 255.397,330.690 256.587 C 329.356 257.743,329.281 257.949,329.081 261.000 C 328.826 264.904,328.618 265.467,327.152 266.225 C 326.088 266.775,325.999 266.996,325.990 269.110 C 325.978 272.146,325.403 274.508,324.557 275.000 C 324.179 275.220,323.584 275.727,323.235 276.127 C 322.886 276.527,322.027 277.449,321.326 278.176 C 320.181 279.363,320.012 279.859,319.662 283.043 C 319.290 286.425,319.206 286.644,317.836 287.794 C 317.046 288.457,316.400 289.216,316.400 289.480 C 316.400 289.743,315.789 290.425,315.043 290.994 C 313.983 291.803,313.628 292.420,313.418 293.820 C 313.137 295.696,313.786 294.966,299.615 309.340 C 299.431 309.527,298.947 310.036,298.540 310.472 C 298.133 310.907,297.125 311.942,296.300 312.770 C 295.475 313.599,294.799 314.530,294.798 314.839 C 294.787 317.600,293.020 319.600,290.591 319.600 C 289.873 319.600,289.088 320.105,288.105 321.200 C 287.315 322.080,286.424 322.800,286.126 322.800 C 285.827 322.800,285.378 323.250,285.127 323.800 C 284.877 324.350,284.517 324.800,284.328 324.800 C 284.140 324.800,282.385 326.397,280.429 328.349 C 277.264 331.508,276.672 331.928,275.034 332.174 C 273.697 332.375,272.869 332.797,272.005 333.722 C 270.883 334.922,270.632 335.001,267.508 335.130 C 264.342 335.261,264.146 335.324,262.936 336.617 C 261.445 338.209,261.065 338.308,255.683 338.519 L 251.567 338.680 250.223 340.147 L 248.880 341.614 215.596 341.507 L 182.312 341.400 181.188 340.053 L 180.064 338.707 175.532 338.524 C 170.453 338.318,169.131 337.965,168.412 336.622 C 167.801 335.481,166.085 335.200,159.718 335.200 C 154.924 335.200,153.939 334.939,152.679 333.336 C 152.063 332.554,151.569 332.398,149.671 332.390 C 146.648 332.378,144.333 331.806,143.724 330.922 C 142.671 329.391,142.311 329.200,140.484 329.198 C 137.782 329.195,135.894 328.568,134.459 327.197 C 133.771 326.538,132.981 325.999,132.704 325.998 C 131.350 325.992,129.190 325.077,128.124 324.059 C 127.389 323.356,126.292 322.821,125.241 322.653 C 124.251 322.495,123.137 321.973,122.564 321.400 C 121.322 320.159,120.565 319.771,118.736 319.441 C 117.927 319.295,116.765 318.668,116.136 318.038 C 115.346 317.245,114.418 316.814,113.089 316.623 C 111.306 316.366,110.865 316.032,106.489 311.630 C 103.910 309.035,101.404 306.787,100.920 306.635 C 100.437 306.483,99.927 306.002,99.789 305.565 C 99.650 305.128,98.831 304.324,97.968 303.780 C 97.106 303.235,96.400 302.518,96.400 302.186 C 96.400 301.546,95.626 301.155,92.944 300.437 C 91.278 299.992,90.000 298.331,90.000 296.613 C 90.000 295.597,89.240 294.400,88.595 294.400 C 88.278 294.400,87.707 293.905,87.325 293.300 C 86.944 292.695,85.995 291.530,85.216 290.711 C 81.974 287.302,81.391 286.506,80.739 284.600 C 80.058 282.607,79.114 281.296,76.336 278.482 C 75.217 277.349,74.763 276.459,74.408 274.699 C 74.088 273.117,73.691 272.263,73.138 271.967 C 71.959 271.336,71.200 269.160,71.200 266.409 C 71.200 264.249,71.068 263.855,69.955 262.696 C 68.228 260.896,68.000 260.088,68.000 255.748 C 68.000 251.914,67.652 250.611,66.387 249.713 C 65.403 249.013,64.800 246.168,64.800 242.219 C 64.800 238.957,64.742 238.732,63.599 237.536 C 61.812 235.666,61.521 233.933,61.668 226.040 C 61.815 218.213,61.886 217.972,64.548 216.245 C 67.055 214.620,69.790 214.979,71.797 217.196 C 72.465 217.935,72.625 218.830,72.800 222.810 C 72.984 226.968,73.116 227.659,73.886 228.478 C 75.465 230.159,76.000 232.115,76.000 236.205 C 76.000 239.805,76.063 240.100,77.048 241.084 C 78.722 242.759,79.200 244.416,79.200 248.549 C 79.200 252.278,79.217 252.345,80.600 254.000 C 81.370 254.922,82.010 255.794,82.022 255.938 C 82.440 261.019,82.758 262.435,83.747 263.610 C 84.329 264.302,85.003 265.651,85.244 266.608 C 85.485 267.565,86.189 268.916,86.810 269.611 C 87.430 270.306,88.148 271.751,88.405 272.822 C 88.690 274.009,89.137 274.853,89.550 274.984 C 89.922 275.102,90.558 275.760,90.963 276.445 C 91.368 277.131,92.126 278.063,92.647 278.516 C 93.168 278.969,93.957 280.307,94.399 281.488 C 94.950 282.961,95.957 284.401,97.601 286.066 C 98.921 287.401,100.000 288.633,100.000 288.802 C 100.000 288.972,101.104 290.075,102.453 291.255 C 103.802 292.435,105.467 293.968,106.153 294.661 C 106.851 295.367,108.175 296.130,109.159 296.393 C 110.573 296.770,111.701 297.644,114.895 300.836 C 119.237 305.175,119.504 305.369,121.684 305.763 C 122.511 305.912,123.672 306.534,124.305 307.167 C 124.993 307.854,126.078 308.410,127.054 308.575 C 128.803 308.871,131.200 310.147,131.200 310.783 C 131.200 311.000,132.235 311.477,133.500 311.842 C 134.765 312.207,136.360 312.995,137.044 313.592 C 137.728 314.188,139.107 314.883,140.110 315.136 C 141.112 315.388,142.465 316.043,143.116 316.591 C 143.767 317.139,145.262 317.793,146.438 318.046 C 147.928 318.365,148.919 318.871,149.705 319.713 C 150.715 320.794,151.170 320.951,153.994 321.199 C 156.923 321.457,159.200 322.308,159.200 323.145 C 159.200 323.984,161.563 324.400,166.321 324.400 C 171.990 324.400,173.876 324.775,174.876 326.100 C 175.487 326.910,176.005 327.024,180.084 327.242 C 184.783 327.492,186.363 327.977,187.703 329.577 L 188.406 330.416 216.031 330.308 C 241.860 330.207,243.682 330.154,244.048 329.500 C 244.714 328.309,246.729 327.558,250.224 327.198 C 252.800 326.932,253.789 326.651,254.489 325.987 C 255.708 324.831,256.914 324.400,258.929 324.400 C 261.282 324.400,263.007 323.829,264.172 322.664 C 264.722 322.115,266.156 321.379,267.359 321.029 C 268.805 320.609,269.862 320.000,270.474 319.234 C 271.690 317.713,274.712 315.448,276.233 314.918 C 276.898 314.686,277.992 313.980,278.664 313.348 C 279.336 312.717,280.804 311.335,281.926 310.277 C 285.450 306.956,289.873 301.842,290.125 300.797 C 290.496 299.256,291.796 297.800,299.334 290.479 C 300.398 289.445,301.772 287.880,302.388 287.000 C 303.003 286.120,303.889 285.056,304.355 284.636 C 304.822 284.217,305.385 283.198,305.607 282.373 C 305.830 281.548,306.549 280.297,307.206 279.594 C 307.863 278.891,308.401 277.929,308.402 277.458 C 308.407 275.739,309.283 273.506,310.419 272.317 C 311.059 271.647,311.696 270.494,311.835 269.755 C 311.974 269.015,312.593 267.912,313.210 267.305 C 313.955 266.573,314.558 265.323,314.999 263.600 C 315.365 262.170,315.988 260.640,316.382 260.200 C 317.606 258.836,318.000 257.728,318.000 255.652 C 318.000 253.200,318.521 251.745,319.925 250.275 C 320.923 249.231,321.014 248.839,321.202 244.800 C 321.390 240.725,321.473 240.376,322.510 239.294 C 324.072 237.663,324.400 236.109,324.400 230.329 C 324.400 224.868,324.700 223.511,326.223 222.084 C 327.198 221.169,327.200 221.151,327.202 212.884 C 327.205 203.799,327.471 202.146,329.228 200.308 L 330.400 199.081 330.400 189.367 C 330.400 179.062,330.534 178.151,332.325 176.274 L 333.400 175.148 333.600 167.247 L 333.800 159.347 335.400 157.541 C 339.796 152.580,342.474 151.490,345.494 153.435 " stroke="none" fill="#fcfcfc" fill-rule="evenodd"></path><path id="path2" d="M258.277 36.548 C 257.245 37.510,256.406 38.545,256.414 38.848 C 256.422 39.162,256.638 39.031,256.914 38.545 C 257.181 38.075,258.182 37.040,259.138 36.245 C 260.094 35.450,260.713 34.800,260.515 34.800 C 260.317 34.800,259.310 35.587,258.277 36.548 M262.883 35.967 C 263.895 36.609,264.915 37.464,265.149 37.867 C 265.384 38.270,265.581 38.409,265.588 38.175 C 265.611 37.375,262.375 34.800,261.348 34.800 C 261.180 34.800,261.871 35.325,262.883 35.967 M265.746 42.600 C 265.747 44.800,265.814 45.649,265.895 44.487 C 265.976 43.324,265.976 41.524,265.893 40.487 C 265.811 39.449,265.745 40.400,265.746 42.600 M255.846 40.872 C 255.703 41.586,255.094 42.718,254.493 43.386 L 253.400 44.600 254.681 43.444 C 255.828 42.408,256.774 40.241,256.291 39.758 C 256.189 39.656,255.989 40.157,255.846 40.872 M265.200 47.375 C 265.200 47.692,264.660 48.542,264.000 49.264 C 263.340 49.987,262.800 50.735,262.800 50.927 C 262.800 51.119,263.430 50.522,264.200 49.600 C 265.429 48.129,265.998 46.800,265.400 46.800 C 265.290 46.800,265.200 47.059,265.200 47.375 M252.959 53.600 C 252.959 56.790,253.021 58.095,253.097 56.500 C 253.173 54.905,253.173 52.295,253.097 50.700 C 253.021 49.105,252.959 50.410,252.959 53.600 M262.565 58.400 C 262.565 62.250,262.625 63.825,262.698 61.900 C 262.771 59.975,262.771 56.825,262.698 54.900 C 262.625 52.975,262.565 54.550,262.565 58.400 M133.106 55.580 L 131.126 57.560 131.263 61.716 C 131.390 65.572,131.486 65.996,132.600 67.599 C 133.772 69.286,133.805 69.469,134.020 75.363 L 134.241 81.400 134.320 75.578 L 134.400 69.757 133.108 67.778 C 131.900 65.929,131.807 65.531,131.671 61.667 L 131.525 57.534 133.370 55.767 C 135.753 53.483,139.331 54.061,140.224 56.875 C 140.361 57.307,140.561 57.572,140.669 57.464 C 141.065 57.068,139.939 55.587,138.497 54.608 C 136.320 53.128,135.389 53.296,133.106 55.580 M140.806 60.633 C 140.809 61.275,140.984 62.070,141.195 62.400 C 141.455 62.809,141.499 62.490,141.332 61.400 C 141.029 59.423,140.798 59.086,140.806 60.633 M252.446 60.178 C 252.421 60.606,251.909 61.506,251.309 62.178 L 250.218 63.400 251.549 62.153 C 252.427 61.330,252.813 60.650,252.686 60.153 C 252.502 59.436,252.491 59.437,252.446 60.178 M141.600 63.305 C 141.600 63.447,142.050 64.228,142.600 65.038 C 143.150 65.849,143.600 66.341,143.600 66.134 C 143.600 65.926,143.150 65.145,142.600 64.400 C 142.050 63.655,141.600 63.162,141.600 63.305 M262.032 65.947 C 262.014 66.248,261.460 67.109,260.800 67.861 C 260.140 68.613,259.605 69.447,259.612 69.714 C 259.619 69.981,259.823 69.840,260.066 69.400 C 260.308 68.960,260.953 68.119,261.498 67.532 C 262.042 66.945,262.392 66.225,262.276 65.932 C 262.103 65.499,262.057 65.502,262.032 65.947 M143.755 71.800 C 143.756 74.660,143.820 75.778,143.897 74.283 C 143.974 72.789,143.974 70.449,143.896 69.083 C 143.818 67.718,143.755 68.940,143.755 71.800 M259.390 101.800 C 259.391 119.180,259.440 126.232,259.500 117.470 C 259.560 108.709,259.560 94.489,259.500 85.870 C 259.440 77.252,259.390 84.420,259.390 101.800 M144.400 79.120 C 144.400 79.330,144.680 79.734,145.022 80.018 C 146.597 81.326,146.594 81.265,146.805 114.400 L 147.009 146.600 147.105 114.674 C 147.175 91.246,147.078 82.515,146.741 81.874 C 146.101 80.658,144.400 78.657,144.400 79.120 M135.059 84.900 C 136.055 86.526,137.200 88.064,137.200 87.777 C 137.200 87.396,135.179 84.400,134.922 84.400 C 134.829 84.400,134.891 84.625,135.059 84.900 M137.389 114.600 C 137.389 129.120,137.439 135.002,137.500 127.671 C 137.561 120.340,137.561 108.460,137.500 101.271 C 137.439 94.082,137.389 100.080,137.389 114.600 M259.609 133.926 C 259.604 134.216,259.807 134.846,260.059 135.326 C 260.699 136.542,262.400 138.543,262.400 138.080 C 262.400 137.870,262.101 137.451,261.737 137.149 C 261.372 136.847,260.746 135.880,260.345 135.000 C 259.945 134.120,259.614 133.637,259.609 133.926 M262.491 147.040 C 262.389 156.486,262.134 157.805,260.246 158.626 C 259.467 158.965,259.269 159.175,259.718 159.184 C 262.314 159.241,262.870 156.900,262.708 146.600 L 262.582 138.600 262.491 147.040 M250.713 141.433 C 250.957 141.891,251.466 142.521,251.844 142.833 C 252.469 143.349,252.491 143.325,252.087 142.567 C 251.843 142.109,251.334 141.479,250.956 141.167 C 250.331 140.651,250.309 140.675,250.713 141.433 M136.832 141.578 C 136.814 141.896,136.309 142.706,135.709 143.378 L 134.618 144.600 135.957 143.344 C 136.700 142.648,137.200 141.846,137.080 141.544 C 136.905 141.106,136.857 141.113,136.832 141.578 M252.713 147.537 C 252.881 153.301,253.073 153.970,253.134 149.000 C 253.164 146.580,253.056 144.392,252.894 144.137 C 252.732 143.882,252.651 145.412,252.713 147.537 M146.400 147.375 C 146.400 147.692,145.860 148.542,145.200 149.264 C 144.540 149.987,144.000 150.735,144.000 150.927 C 144.000 151.119,144.630 150.522,145.400 149.600 C 146.629 148.129,147.198 146.800,146.600 146.800 C 146.490 146.800,146.400 147.059,146.400 147.375 M134.166 155.200 C 134.166 159.270,134.225 160.935,134.298 158.900 C 134.371 156.865,134.371 153.535,134.298 151.500 C 134.225 149.465,134.166 151.130,134.166 155.200 M143.765 158.400 C 143.765 162.250,143.825 163.825,143.898 161.900 C 143.971 159.975,143.971 156.825,143.898 154.900 C 143.825 152.975,143.765 154.550,143.765 158.400 M339.794 155.100 C 338.697 155.925,337.082 157.410,336.204 158.400 C 334.713 160.081,334.766 160.055,337.004 158.000 C 338.322 156.790,340.030 155.313,340.800 154.719 C 341.570 154.124,342.107 153.629,341.994 153.619 C 341.881 153.608,340.891 154.275,339.794 155.100 M344.083 154.767 C 345.095 155.409,346.115 156.264,346.349 156.667 C 346.584 157.070,346.781 157.209,346.788 156.975 C 346.811 156.175,343.575 153.600,342.548 153.600 C 342.380 153.600,343.071 154.125,344.083 154.767 M346.924 159.800 C 346.926 161.120,347.001 161.612,347.090 160.893 C 347.179 160.174,347.177 159.094,347.086 158.493 C 346.995 157.892,346.922 158.480,346.924 159.800 M346.400 162.979 C 346.400 163.298,345.950 164.044,345.400 164.638 C 344.850 165.231,344.405 165.826,344.412 165.958 C 344.437 166.483,346.800 163.549,346.800 162.994 C 346.800 162.667,346.710 162.400,346.600 162.400 C 346.490 162.400,346.400 162.661,346.400 162.979 M334.159 169.200 C 334.159 172.390,334.221 173.695,334.297 172.100 C 334.373 170.505,334.373 167.895,334.297 166.300 C 334.221 164.705,334.159 166.010,334.159 169.200 M134.425 164.947 C 134.393 165.911,137.279 168.805,138.253 168.784 C 138.769 168.774,138.629 168.605,137.800 168.239 C 136.405 167.623,135.405 166.591,134.846 165.192 C 134.538 164.418,134.445 164.364,134.425 164.947 M142.998 166.493 C 142.779 166.992,141.970 167.715,141.200 168.099 C 140.414 168.492,140.104 168.799,140.494 168.799 C 141.394 168.800,143.762 166.685,143.555 166.064 C 143.467 165.802,143.217 165.995,142.998 166.493 M343.765 174.000 C 343.765 177.850,343.825 179.425,343.898 177.500 C 343.971 175.575,343.971 172.425,343.898 170.500 C 343.825 168.575,343.765 170.150,343.765 174.000 M333.600 175.951 C 333.600 176.364,333.320 176.934,332.978 177.218 C 332.636 177.502,332.166 178.109,331.934 178.567 C 331.702 179.025,332.065 178.770,332.740 178.000 C 333.805 176.786,334.405 175.200,333.800 175.200 C 333.690 175.200,333.600 175.538,333.600 175.951 M331.373 189.200 C 331.373 194.590,331.430 196.795,331.499 194.100 C 331.568 191.405,331.568 186.995,331.499 184.300 C 331.430 181.605,331.373 183.810,331.373 189.200 M341.049 185.015 C 340.912 185.373,340.838 189.296,340.884 193.733 L 340.969 201.800 341.184 193.200 C 341.417 183.926,341.419 184.052,341.049 185.015 M329.996 201.297 C 328.835 203.044,328.756 203.386,329.772 202.278 C 330.337 201.660,330.800 200.985,330.800 200.778 C 330.800 200.214,330.653 200.309,329.996 201.297 M328.249 204.215 C 328.112 204.573,328.038 208.496,328.084 212.933 L 328.169 221.000 328.384 212.400 C 328.617 203.126,328.619 203.252,328.249 204.215 M339.400 205.089 C 337.982 206.974,337.857 207.438,339.146 206.028 C 339.836 205.273,340.400 204.508,340.400 204.328 C 340.400 203.833,340.271 203.931,339.400 205.089 M337.769 215.600 C 337.769 220.110,337.827 221.955,337.898 219.700 C 337.970 217.445,337.970 213.755,337.898 211.500 C 337.827 209.245,337.769 211.090,337.769 215.600 M66.572 216.446 C 66.383 216.751,66.447 216.818,66.749 216.631 C 67.476 216.182,70.745 217.948,71.392 219.140 C 71.709 219.723,71.975 220.015,71.984 219.789 C 72.049 218.124,67.335 215.211,66.572 216.446 M63.953 218.353 L 62.400 219.906 62.406 226.653 C 62.409 230.364,62.544 233.609,62.706 233.864 C 62.868 234.119,62.943 231.087,62.874 227.126 L 62.749 219.925 64.441 218.362 C 65.372 217.503,65.992 216.800,65.819 216.800 C 65.647 216.800,64.807 217.499,63.953 218.353 M72.134 224.800 C 72.134 226.450,72.205 227.125,72.291 226.300 C 72.378 225.475,72.378 224.125,72.291 223.300 C 72.205 222.475,72.134 223.150,72.134 224.800 M326.300 223.972 C 324.827 226.056,324.896 226.492,326.400 224.600 C 327.416 223.321,327.891 222.375,327.500 222.409 C 327.445 222.413,326.905 223.117,326.300 223.972 M337.016 225.478 C 336.867 226.071,336.218 227.158,335.573 227.892 L 334.400 229.228 334.481 235.914 L 334.563 242.600 334.781 235.725 C 334.997 228.950,335.016 228.833,336.071 227.725 C 337.022 226.727,338.012 224.400,337.487 224.400 C 337.377 224.400,337.165 224.885,337.016 225.478 M324.955 231.400 C 324.956 234.260,325.020 235.378,325.097 233.883 C 325.174 232.389,325.174 230.049,325.096 228.683 C 325.018 227.318,324.955 228.540,324.955 231.400 M72.416 228.445 C 72.407 228.800,72.940 229.769,73.600 230.600 C 74.260 231.431,74.800 231.927,74.800 231.704 C 74.800 231.481,74.502 231.051,74.139 230.749 C 73.775 230.447,73.242 229.660,72.954 229.000 C 72.667 228.340,72.424 228.090,72.416 228.445 M74.944 236.000 C 74.944 238.090,75.012 238.945,75.094 237.900 C 75.176 236.855,75.176 235.145,75.094 234.100 C 75.012 233.055,74.944 233.910,74.944 236.000 M63.406 235.200 C 64.286 236.669,65.600 238.487,65.600 238.236 C 65.600 237.665,64.426 235.720,63.750 235.171 C 63.135 234.672,63.092 234.675,63.406 235.200 M324.400 238.447 C 324.400 238.693,323.860 239.509,323.200 240.261 C 322.540 241.013,322.005 241.847,322.012 242.114 C 322.019 242.381,322.229 242.240,322.478 241.800 C 322.728 241.360,323.352 240.604,323.866 240.119 C 324.687 239.344,325.153 238.000,324.600 238.000 C 324.490 238.000,324.400 238.201,324.400 238.447 M65.742 242.600 C 65.741 244.580,65.808 245.440,65.892 244.512 C 65.976 243.584,65.977 241.964,65.895 240.912 C 65.812 239.860,65.743 240.620,65.742 242.600 M75.216 240.445 C 75.207 240.800,75.744 241.775,76.409 242.611 C 77.848 244.423,77.963 244.850,78.119 249.000 L 78.239 252.200 78.320 248.559 C 78.393 245.242,78.311 244.798,77.404 243.559 C 76.856 242.812,76.143 241.660,75.819 241.000 C 75.492 240.331,75.224 240.086,75.216 240.445 M333.686 244.261 C 333.439 245.065,333.396 245.560,333.590 245.361 C 333.982 244.961,334.589 242.800,334.310 242.800 C 334.214 242.800,333.932 243.458,333.686 244.261 M321.728 247.200 C 321.728 248.630,321.801 249.215,321.889 248.500 C 321.978 247.785,321.978 246.615,321.889 245.900 C 321.801 245.185,321.728 245.770,321.728 247.200 M66.001 246.633 C 66.004 247.126,67.526 249.600,67.827 249.600 C 67.958 249.600,67.659 248.925,67.163 248.100 C 66.043 246.237,66.000 246.183,66.001 246.633 M331.324 250.600 C 331.326 251.920,331.401 252.412,331.490 251.693 C 331.579 250.974,331.577 249.894,331.486 249.293 C 331.395 248.692,331.322 249.280,331.324 250.600 M320.871 250.898 C 320.619 251.394,320.118 252.205,319.757 252.700 C 319.397 253.195,319.190 253.600,319.297 253.600 C 319.634 253.600,321.728 250.395,321.524 250.191 C 321.417 250.084,321.123 250.402,320.871 250.898 M68.534 253.600 C 68.534 255.250,68.605 255.925,68.691 255.100 C 68.778 254.275,68.778 252.925,68.691 252.100 C 68.605 251.275,68.534 251.950,68.534 253.600 M78.409 252.726 C 78.404 253.016,78.607 253.646,78.859 254.126 C 79.499 255.342,81.200 257.343,81.200 256.880 C 81.200 256.670,80.901 256.251,80.537 255.949 C 80.172 255.647,79.546 254.680,79.145 253.800 C 78.745 252.920,78.414 252.437,78.409 252.726 M330.800 253.769 C 330.800 254.082,330.330 254.937,329.755 255.669 L 328.709 257.000 329.955 255.694 C 331.037 254.559,331.606 253.200,331.000 253.200 C 330.890 253.200,330.800 253.456,330.800 253.769 M81.314 259.400 C 81.317 260.500,81.395 260.903,81.487 260.295 C 81.579 259.686,81.577 258.786,81.482 258.295 C 81.387 257.803,81.311 258.300,81.314 259.400 M68.800 258.564 C 68.800 259.135,69.974 261.080,70.650 261.629 C 71.265 262.128,71.308 262.125,70.994 261.600 C 70.114 260.131,68.800 258.313,68.800 258.564 M328.120 260.400 C 328.120 261.610,328.195 262.105,328.287 261.500 C 328.378 260.895,328.378 259.905,328.287 259.300 C 328.195 258.695,328.120 259.190,328.120 260.400 M317.089 261.181 C 316.490 262.246,316.004 263.271,316.009 263.459 C 316.014 263.647,316.574 262.845,317.254 261.679 C 317.934 260.512,318.420 259.487,318.334 259.401 C 318.248 259.315,317.688 260.116,317.089 261.181 M71.468 263.800 C 71.771 265.777,72.002 266.114,71.994 264.567 C 71.991 263.925,71.816 263.130,71.605 262.800 C 71.345 262.391,71.301 262.710,71.468 263.800 M327.600 263.338 C 327.600 263.634,327.223 264.217,326.763 264.634 C 326.303 265.050,325.737 265.753,325.506 266.196 C 325.275 266.638,325.742 266.312,326.543 265.472 C 327.802 264.150,328.438 262.800,327.800 262.800 C 327.690 262.800,327.600 263.042,327.600 263.338 M315.200 266.162 C 315.200 266.471,314.570 267.478,313.800 268.400 C 313.030 269.322,312.411 270.374,312.425 270.738 C 312.442 271.174,312.581 271.074,312.833 270.444 C 313.044 269.918,313.752 268.877,314.408 268.130 C 315.455 266.937,315.979 265.600,315.400 265.600 C 315.290 265.600,315.200 265.853,315.200 266.162 M324.920 269.600 C 324.920 270.810,324.995 271.305,325.087 270.700 C 325.178 270.095,325.178 269.105,325.087 268.500 C 324.995 267.895,324.920 268.390,324.920 269.600 M72.659 269.300 C 73.655 270.926,74.800 272.464,74.800 272.177 C 74.800 271.796,72.779 268.800,72.522 268.800 C 72.429 268.800,72.491 269.025,72.659 269.300 M84.812 269.069 C 84.805 269.327,85.221 270.047,85.736 270.669 C 86.251 271.291,86.875 272.160,87.124 272.600 C 87.372 273.040,87.581 273.189,87.588 272.931 C 87.595 272.673,87.179 271.953,86.664 271.331 C 86.149 270.709,85.525 269.840,85.276 269.400 C 85.028 268.960,84.819 268.811,84.812 269.069 M311.000 273.524 C 310.340 274.532,309.726 275.547,309.637 275.779 C 309.373 276.459,311.435 273.888,311.973 272.866 C 312.838 271.223,312.241 271.627,311.000 273.524 M324.210 273.170 C 324.065 273.626,323.789 274.000,323.598 274.000 C 322.244 274.000,318.802 279.319,318.859 281.323 L 318.918 283.400 319.159 281.190 C 319.389 279.081,322.132 274.800,323.253 274.800 C 323.700 274.800,324.963 272.830,324.691 272.557 C 324.571 272.438,324.354 272.713,324.210 273.170 M74.816 273.526 C 74.788 274.447,77.824 278.787,79.623 280.400 C 79.746 280.510,80.151 281.045,80.523 281.589 C 80.895 282.133,81.200 282.385,81.200 282.150 C 81.200 281.915,80.018 280.337,78.573 278.644 C 77.129 276.951,75.696 274.988,75.389 274.283 C 75.082 273.577,74.824 273.237,74.816 273.526 M87.616 274.011 C 87.597 274.759,88.349 275.866,91.044 279.058 C 92.185 280.410,93.244 281.908,93.396 282.388 C 93.548 282.868,93.761 283.172,93.869 283.064 C 94.252 282.682,90.260 276.855,89.140 276.163 C 88.910 276.021,88.476 275.341,88.176 274.652 C 87.876 273.963,87.624 273.675,87.616 274.011 M94.001 283.886 C 94.000 284.283,98.342 289.469,100.800 292.006 C 102.650 293.916,107.103 297.207,107.800 297.180 C 108.020 297.172,107.522 296.807,106.694 296.370 C 105.057 295.506,95.969 286.548,94.752 284.600 C 94.340 283.940,94.002 283.619,94.001 283.886 M318.267 284.475 C 318.120 285.063,317.774 285.783,317.499 286.075 C 317.225 286.367,316.128 287.684,315.062 289.003 L 313.124 291.400 315.375 289.000 C 317.781 286.434,318.945 284.636,318.692 283.876 C 318.606 283.618,318.415 283.887,318.267 284.475 M81.611 284.264 C 81.631 284.872,86.591 291.009,88.828 293.195 C 89.394 293.748,90.064 294.560,90.316 295.000 C 90.569 295.440,90.781 295.573,90.788 295.296 C 90.795 295.019,90.101 294.029,89.247 293.096 C 86.915 290.548,85.119 288.436,83.267 286.064 C 82.350 284.889,81.605 284.079,81.611 284.264 M305.403 285.191 C 305.265 285.627,302.615 288.552,299.514 291.691 C 292.688 298.605,290.796 300.700,290.814 301.324 C 290.822 301.586,291.047 301.421,291.314 300.958 C 291.581 300.495,294.265 297.615,297.279 294.558 C 303.069 288.683,306.000 285.396,306.000 284.776 C 306.000 284.131,305.665 284.364,305.403 285.191 M312.061 293.953 C 311.804 294.810,311.170 295.790,310.652 296.129 C 310.133 296.469,309.104 297.524,308.364 298.473 C 307.325 299.807,307.593 299.622,309.543 297.663 C 311.786 295.409,313.227 293.094,312.710 292.577 C 312.610 292.477,312.318 293.096,312.061 293.953 M109.364 297.941 C 109.507 298.173,110.204 298.765,110.912 299.257 L 112.200 300.151 111.404 299.239 C 110.538 298.244,108.912 297.211,109.364 297.941 M92.703 299.100 C 93.221 299.595,93.860 299.995,94.122 299.988 C 94.385 299.981,94.240 299.776,93.800 299.532 C 93.360 299.288,92.721 298.888,92.380 298.644 C 92.040 298.400,92.185 298.605,92.703 299.100 M95.733 300.450 C 96.136 300.685,97.306 301.690,98.333 302.685 C 99.360 303.679,101.370 305.444,102.800 306.607 C 104.230 307.770,106.750 310.103,108.400 311.790 C 111.300 314.756,112.994 316.010,114.080 315.991 C 114.366 315.986,113.880 315.654,113.000 315.252 C 112.120 314.850,110.598 313.639,109.617 312.560 C 108.636 311.482,106.746 309.646,105.417 308.480 C 99.855 303.602,98.663 302.536,97.384 301.300 C 96.645 300.585,95.806 300.005,95.520 300.012 C 95.219 300.019,95.308 300.204,95.733 300.450 M112.400 300.141 C 112.400 301.092,117.733 305.727,119.671 306.461 C 120.842 306.904,122.070 307.507,122.400 307.802 C 123.089 308.416,127.225 310.108,127.461 309.872 C 127.547 309.786,126.759 309.395,125.709 309.003 C 124.659 308.611,123.513 308.043,123.163 307.740 C 122.812 307.437,121.437 306.763,120.107 306.242 C 118.263 305.519,117.061 304.648,115.044 302.571 C 113.590 301.073,112.400 299.979,112.400 300.141 M303.200 303.538 C 298.022 308.926,294.220 313.141,294.034 313.698 C 293.943 313.974,294.635 313.300,295.572 312.200 C 296.510 311.100,297.897 309.570,298.656 308.800 C 301.732 305.679,305.836 301.358,306.351 300.700 C 307.547 299.169,306.437 300.169,303.200 303.538 M290.400 302.282 C 290.400 303.356,283.387 310.924,279.636 313.900 C 278.457 314.835,277.662 315.600,277.870 315.600 C 279.553 315.600,291.522 302.989,290.659 302.125 C 290.516 301.983,290.400 302.054,290.400 302.282 M128.564 310.715 C 128.983 311.204,130.405 311.996,131.722 312.477 C 133.039 312.957,134.585 313.741,135.158 314.220 C 135.731 314.699,136.650 315.216,137.200 315.370 C 138.488 315.731,135.741 313.955,133.200 312.784 C 132.210 312.328,131.040 311.788,130.600 311.584 C 130.160 311.379,129.350 310.901,128.800 310.520 L 127.800 309.827 128.564 310.715 M293.415 315.530 C 293.125 316.851,292.281 317.759,290.792 318.354 C 290.147 318.611,290.035 318.758,290.469 318.775 C 291.925 318.830,294.692 315.359,293.858 314.524 C 293.758 314.424,293.559 314.877,293.415 315.530 M275.787 316.114 C 274.723 316.750,272.973 318.285,271.496 319.878 C 270.845 320.581,269.779 321.273,269.127 321.416 C 268.476 321.559,268.024 321.758,268.124 321.858 C 268.637 322.370,270.468 321.304,272.740 319.170 C 274.136 317.858,275.756 316.525,276.340 316.208 C 276.923 315.891,277.220 315.631,277.000 315.630 C 276.780 315.629,276.234 315.847,275.787 316.114 M141.240 317.193 C 142.208 317.849,143.162 318.389,143.360 318.393 C 143.558 318.397,142.928 317.863,141.960 317.207 C 140.992 316.551,140.038 316.011,139.840 316.007 C 139.642 316.003,140.272 316.537,141.240 317.193 M117.903 317.900 C 118.421 318.395,119.150 318.789,119.522 318.775 C 119.973 318.758,119.868 318.617,119.208 318.354 C 118.663 318.136,117.934 317.742,117.589 317.479 C 117.243 317.216,117.385 317.405,117.903 317.900 M122.200 319.676 C 122.640 319.925,123.509 320.549,124.131 321.064 C 124.753 321.579,125.473 321.995,125.731 321.988 C 125.989 321.981,125.840 321.772,125.400 321.524 C 124.960 321.275,124.091 320.651,123.469 320.136 C 122.847 319.621,122.127 319.205,121.869 319.212 C 121.611 319.219,121.760 319.428,122.200 319.676 M147.246 319.943 C 148.646 321.034,150.656 322.003,151.480 321.982 C 151.876 321.973,151.549 321.732,150.754 321.448 C 149.959 321.164,148.761 320.542,148.092 320.066 C 146.608 319.009,145.919 318.909,147.246 319.943 M285.217 321.905 C 283.576 323.387,280.895 325.924,279.258 327.541 C 277.622 329.159,275.635 330.721,274.842 331.013 C 274.049 331.305,273.613 331.556,273.874 331.572 C 275.035 331.641,276.546 330.644,279.270 328.012 C 280.882 326.456,283.640 323.837,285.400 322.193 C 287.160 320.548,288.510 319.205,288.400 319.206 C 288.290 319.208,286.858 320.422,285.217 321.905 M155.259 322.556 C 156.062 322.843,157.211 323.465,157.813 323.939 C 158.415 324.412,159.103 324.800,159.340 324.800 C 159.578 324.800,158.795 324.170,157.600 323.400 C 156.405 322.630,155.061 322.008,154.613 322.018 C 154.100 322.029,154.339 322.228,155.259 322.556 M265.514 323.152 C 264.791 323.786,263.840 324.395,263.400 324.506 C 262.639 324.697,262.642 324.709,263.451 324.754 C 263.919 324.779,264.549 324.501,264.851 324.135 C 265.153 323.770,265.940 323.140,266.600 322.737 C 267.260 322.333,267.581 322.002,267.314 322.001 C 267.047 322.001,266.237 322.519,265.514 323.152 M129.722 323.813 C 130.340 324.356,131.050 324.800,131.300 324.800 C 131.550 324.800,131.145 324.350,130.400 323.800 C 128.667 322.521,128.263 322.529,129.722 323.813 M163.100 325.096 C 164.475 325.174,166.725 325.174,168.100 325.096 C 169.475 325.018,168.350 324.954,165.600 324.954 C 162.850 324.954,161.725 325.018,163.100 325.096 M258.700 325.082 C 259.195 325.178,260.005 325.178,260.500 325.082 C 260.995 324.987,260.590 324.909,259.600 324.909 C 258.610 324.909,258.205 324.987,258.700 325.082 M135.545 326.600 C 136.665 327.370,137.689 328.000,137.821 328.000 C 138.176 328.000,135.941 326.193,134.926 325.659 C 133.240 324.773,133.530 325.214,135.545 326.600 M172.800 326.600 C 173.995 327.370,175.249 327.989,175.587 327.975 C 175.994 327.958,175.925 327.838,175.381 327.617 C 174.930 327.435,173.870 326.816,173.025 326.243 C 172.180 325.669,171.295 325.200,171.058 325.200 C 170.821 325.200,171.605 325.830,172.800 326.600 M255.478 326.613 C 254.860 327.156,254.514 327.600,254.708 327.600 C 254.902 327.600,255.483 327.150,256.000 326.600 C 257.195 325.328,256.931 325.334,255.478 326.613 M139.305 328.287 C 139.914 328.379,140.814 328.377,141.305 328.282 C 141.797 328.187,141.300 328.111,140.200 328.114 C 139.100 328.117,138.697 328.195,139.305 328.287 M179.837 328.370 C 182.940 328.566,183.707 328.762,185.059 329.700 C 186.835 330.934,187.831 331.208,186.354 330.057 C 184.181 328.363,182.925 327.998,179.520 328.070 L 176.200 328.140 179.837 328.370 M248.046 328.363 C 247.705 328.579,248.242 328.641,249.446 328.524 C 252.155 328.260,252.533 328.068,250.400 328.038 C 249.410 328.024,248.351 328.170,248.046 328.363 M143.000 328.876 C 143.440 329.125,144.309 329.749,144.931 330.264 C 145.553 330.779,146.363 331.189,146.731 331.175 C 147.184 331.157,147.094 331.027,146.452 330.770 C 145.930 330.561,144.972 329.942,144.321 329.395 C 143.671 328.848,142.927 328.405,142.669 328.412 C 142.411 328.419,142.560 328.628,143.000 328.876 M245.600 329.800 C 244.855 330.350,244.450 330.800,244.700 330.800 C 245.153 330.800,247.601 328.837,247.178 328.813 C 247.055 328.806,246.345 329.250,245.600 329.800 M148.505 331.487 C 149.114 331.579,150.014 331.577,150.505 331.482 C 150.997 331.387,150.500 331.311,149.400 331.314 C 148.300 331.317,147.897 331.395,148.505 331.487 M202.100 331.500 C 209.525 331.561,221.675 331.561,229.100 331.500 C 236.525 331.439,230.450 331.389,215.600 331.389 C 200.750 331.389,194.675 331.439,202.100 331.500 M153.434 332.771 C 154.309 333.414,155.560 334.046,156.213 334.174 L 157.400 334.407 156.180 333.904 C 155.509 333.627,154.401 332.995,153.718 332.500 C 153.035 332.005,152.334 331.600,152.159 331.600 C 151.985 331.600,152.559 332.127,153.434 332.771 M271.480 332.408 C 270.915 332.853,269.856 333.476,269.127 333.792 C 268.397 334.109,268.076 334.376,268.413 334.384 C 268.751 334.393,270.005 333.770,271.200 333.000 C 272.395 332.230,273.178 331.600,272.940 331.600 C 272.703 331.600,272.046 331.964,271.480 332.408 M160.300 334.696 C 161.675 334.774,163.925 334.774,165.300 334.696 C 166.675 334.618,165.550 334.554,162.800 334.554 C 160.050 334.554,158.925 334.618,160.300 334.696 M264.505 334.687 C 265.114 334.779,266.014 334.777,266.505 334.682 C 266.997 334.587,266.500 334.511,265.400 334.514 C 264.300 334.517,263.897 334.595,264.505 334.687 M169.308 335.973 C 170.042 336.618,171.174 337.249,171.822 337.375 L 173.000 337.605 171.800 337.152 C 171.140 336.904,170.140 336.273,169.578 335.750 C 169.016 335.228,168.425 334.800,168.264 334.800 C 168.104 334.800,168.573 335.328,169.308 335.973 M261.473 335.900 C 261.089 336.285,260.195 336.827,259.487 337.104 L 258.200 337.607 259.400 337.379 C 260.373 337.194,263.097 335.200,262.377 335.200 C 262.264 335.200,261.857 335.515,261.473 335.900 M177.070 337.970 C 180.050 338.157,180.914 338.360,181.670 339.050 C 182.786 340.070,184.153 340.808,184.874 340.779 C 185.163 340.768,184.725 340.479,183.900 340.137 C 183.075 339.794,182.400 339.358,182.400 339.167 C 182.400 338.252,179.936 337.602,176.720 337.670 L 173.400 337.740 177.070 337.970 M252.912 337.895 C 253.964 337.977,255.584 337.976,256.512 337.892 C 257.440 337.808,256.580 337.741,254.600 337.742 C 252.620 337.743,251.860 337.812,252.912 337.895 M249.679 338.900 C 249.184 339.395,248.199 340.027,247.490 340.304 L 246.200 340.807 247.400 340.580 C 248.368 340.396,251.508 338.000,250.781 338.000 C 250.669 338.000,250.173 338.405,249.679 338.900 M200.930 341.100 C 209.251 341.160,222.751 341.160,230.930 341.100 C 239.108 341.039,232.300 340.990,215.800 340.990 C 199.300 340.990,192.608 341.039,200.930 341.100 " stroke="none" fill="#848484" fill-rule="evenodd"></path><path id="path3" d="M259.800 33.872 C 258.214 34.274,256.077 36.813,255.580 38.884 C 255.320 39.969,254.701 41.263,254.204 41.759 C 252.536 43.427,252.400 44.117,252.400 50.876 C 252.400 57.759,252.108 59.658,250.884 60.738 C 249.214 62.213,249.200 62.551,249.200 102.009 C 249.200 143.059,249.141 141.904,251.363 144.126 C 252.381 145.145,252.400 145.265,252.400 150.821 C 252.400 158.938,253.266 160.257,258.531 160.155 C 263.261 160.063,263.487 159.498,263.553 147.597 C 263.605 138.173,263.428 137.021,261.621 134.963 L 260.400 133.572 260.400 101.802 C 260.400 76.881,260.508 69.939,260.900 69.602 C 261.175 69.366,261.725 68.949,262.122 68.676 C 263.252 67.898,263.580 65.539,263.590 58.116 C 263.598 52.350,263.702 51.148,264.229 50.716 C 266.100 49.181,266.348 48.754,266.615 46.616 C 267.749 37.546,265.068 32.534,259.800 33.872 M262.720 35.362 C 266.568 37.364,267.497 45.814,264.273 49.482 L 263.000 50.930 262.800 58.640 C 262.602 66.287,262.592 66.358,261.549 67.474 C 259.536 69.630,259.600 68.500,259.600 101.787 C 259.600 135.787,259.541 134.810,261.719 137.126 C 263.671 139.202,263.136 157.250,261.083 158.572 C 256.215 161.707,253.264 158.497,252.852 149.621 C 252.606 144.333,252.477 143.530,251.737 142.718 C 249.959 140.768,250.000 141.724,250.000 101.840 L 250.000 63.628 251.290 62.158 L 252.581 60.688 252.858 53.244 C 253.011 49.150,253.150 45.581,253.168 45.314 C 253.185 45.047,253.729 44.225,254.375 43.489 C 255.022 42.753,255.771 41.262,256.041 40.175 C 256.944 36.538,260.314 34.110,262.720 35.362 M134.448 52.819 C 132.731 53.529,130.852 55.980,130.567 57.879 C 129.881 62.455,130.884 68.519,132.406 69.002 C 133.296 69.285,133.592 71.745,133.597 78.913 C 133.600 84.532,134.036 86.713,135.304 87.459 C 136.756 88.314,136.800 89.093,136.800 114.076 C 136.800 138.945,136.705 140.688,135.280 141.938 C 133.687 143.335,133.600 144.026,133.600 155.194 C 133.600 168.849,133.913 169.600,139.607 169.600 C 144.246 169.600,144.480 169.112,144.770 158.833 C 144.923 153.401,145.148 150.616,145.443 150.518 C 147.978 149.677,147.981 149.640,147.982 114.200 C 147.982 79.348,148.007 79.739,145.738 78.470 C 145.086 78.105,144.973 77.320,144.766 71.728 C 144.516 64.963,144.272 63.905,142.643 62.503 C 141.731 61.718,141.600 61.299,141.600 59.163 C 141.600 54.360,138.140 51.291,134.448 52.819 M138.731 54.796 C 139.640 55.454,140.467 56.399,140.570 56.896 C 140.673 57.393,140.943 58.955,141.170 60.367 C 141.434 62.006,141.984 63.510,142.692 64.532 C 143.754 66.064,143.808 66.379,144.004 72.189 C 144.180 77.387,144.322 78.408,145.004 79.374 C 147.393 82.755,147.196 79.613,147.198 114.203 C 147.200 147.489,147.187 147.736,145.308 149.695 L 144.200 150.850 144.000 158.658 L 143.800 166.467 142.494 167.633 C 139.436 170.364,134.989 168.357,134.366 163.964 C 133.318 156.588,134.138 144.934,135.829 143.170 L 137.000 141.948 137.108 115.055 L 137.216 88.162 135.937 86.230 C 134.360 83.849,134.054 82.083,134.024 75.169 L 134.000 69.737 132.700 67.776 C 131.478 65.934,131.392 65.566,131.263 61.688 L 131.126 57.560 133.106 55.580 C 135.452 53.233,136.393 53.102,138.731 54.796 M340.844 152.820 C 339.645 153.316,337.479 155.195,335.400 157.541 L 333.800 159.347 333.600 167.247 L 333.400 175.148 332.325 176.274 C 330.534 178.151,330.400 179.062,330.400 189.367 L 330.400 199.081 329.228 200.308 C 327.471 202.146,327.205 203.799,327.202 212.884 C 327.200 221.151,327.198 221.169,326.223 222.084 C 324.700 223.511,324.400 224.868,324.400 230.329 C 324.400 236.109,324.072 237.663,322.510 239.294 C 321.473 240.376,321.390 240.725,321.202 244.800 C 321.014 248.839,320.923 249.231,319.925 250.275 C 318.521 251.745,318.000 253.200,318.000 255.652 C 318.000 257.728,317.606 258.836,316.382 260.200 C 315.988 260.640,315.365 262.170,314.999 263.600 C 314.558 265.323,313.955 266.573,313.210 267.305 C 312.593 267.912,311.974 269.015,311.835 269.755 C 311.696 270.494,311.059 271.647,310.419 272.317 C 309.283 273.506,308.407 275.739,308.402 277.458 C 308.401 277.929,307.863 278.891,307.206 279.594 C 306.549 280.297,305.830 281.548,305.607 282.373 C 305.385 283.198,304.822 284.217,304.355 284.636 C 303.889 285.056,303.003 286.120,302.388 287.000 C 301.772 287.880,300.398 289.445,299.334 290.479 C 291.796 297.800,290.496 299.256,290.125 300.797 C 289.873 301.842,285.450 306.956,281.926 310.277 C 280.804 311.335,279.336 312.717,278.664 313.348 C 277.992 313.980,276.898 314.686,276.233 314.918 C 274.712 315.448,271.690 317.713,270.474 319.234 C 269.862 320.000,268.805 320.609,267.359 321.029 C 266.156 321.379,264.722 322.115,264.172 322.664 C 263.007 323.829,261.282 324.400,258.929 324.400 C 256.914 324.400,255.708 324.831,254.489 325.987 C 253.789 326.651,252.800 326.932,250.224 327.198 C 246.729 327.558,244.714 328.309,244.048 329.500 C 243.682 330.154,241.860 330.207,216.031 330.308 L 188.406 330.416 187.703 329.577 C 186.363 327.977,184.783 327.492,180.084 327.242 C 176.005 327.024,175.487 326.910,174.876 326.100 C 173.876 324.775,171.990 324.400,166.321 324.400 C 161.563 324.400,159.200 323.984,159.200 323.145 C 159.200 322.308,156.923 321.457,153.994 321.199 C 151.170 320.951,150.715 320.794,149.705 319.713 C 148.919 318.871,147.928 318.365,146.438 318.046 C 145.262 317.793,143.767 317.139,143.116 316.591 C 142.465 316.043,141.112 315.388,140.110 315.136 C 139.107 314.883,137.728 314.188,137.044 313.592 C 136.360 312.995,134.765 312.207,133.500 311.842 C 132.235 311.477,131.200 311.000,131.200 310.783 C 131.200 310.147,128.803 308.871,127.054 308.575 C 126.078 308.410,124.993 307.854,124.305 307.167 C 123.672 306.534,122.511 305.912,121.684 305.763 C 119.504 305.369,119.237 305.175,114.895 300.836 C 111.701 297.644,110.573 296.770,109.159 296.393 C 108.175 296.130,106.851 295.367,106.153 294.661 C 105.467 293.968,103.802 292.435,102.453 291.255 C 101.104 290.075,100.000 288.972,100.000 288.802 C 100.000 288.633,98.921 287.401,97.601 286.066 C 95.957 284.401,94.950 282.961,94.399 281.488 C 93.957 280.307,93.168 278.969,92.647 278.516 C 92.126 278.063,91.368 277.131,90.963 276.445 C 90.558 275.760,89.922 275.102,89.550 274.984 C 89.137 274.853,88.690 274.009,88.405 272.822 C 88.148 271.751,87.430 270.306,86.810 269.611 C 86.189 268.916,85.485 267.565,85.244 266.608 C 85.003 265.651,84.329 264.302,83.747 263.610 C 82.758 262.435,82.440 261.019,82.022 255.938 C 82.010 255.794,81.370 254.922,80.600 254.000 C 79.217 252.345,79.200 252.278,79.200 248.549 C 79.200 244.416,78.722 242.759,77.048 241.084 C 76.063 240.100,76.000 239.805,76.000 236.205 C 76.000 232.115,75.465 230.159,73.886 228.478 C 73.116 227.659,72.984 226.968,72.800 222.810 C 72.625 218.830,72.465 217.935,71.797 217.196 C 69.790 214.979,67.055 214.620,64.548 216.245 C 61.886 217.972,61.815 218.213,61.668 226.040 C 61.521 233.933,61.812 235.666,63.599 237.536 C 64.742 238.732,64.800 238.957,64.800 242.219 C 64.800 246.168,65.403 249.013,66.387 249.713 C 67.652 250.611,68.000 251.914,68.000 255.748 C 68.000 260.088,68.228 260.896,69.955 262.696 C 71.068 263.855,71.200 264.249,71.200 266.409 C 71.200 269.160,71.959 271.336,73.138 271.967 C 73.691 272.263,74.088 273.117,74.408 274.699 C 74.763 276.459,75.217 277.349,76.336 278.482 C 79.114 281.296,80.058 282.607,80.739 284.600 C 81.391 286.506,81.974 287.302,85.216 290.711 C 85.995 291.530,86.944 292.695,87.325 293.300 C 87.707 293.905,88.278 294.400,88.595 294.400 C 89.240 294.400,90.000 295.597,90.000 296.613 C 90.000 298.331,91.278 299.992,92.944 300.437 C 95.626 301.155,96.400 301.546,96.400 302.186 C 96.400 302.518,97.106 303.235,97.968 303.780 C 98.831 304.324,99.650 305.128,99.789 305.565 C 99.927 306.002,100.437 306.483,100.920 306.635 C 101.404 306.787,103.910 309.035,106.489 311.630 C 110.865 316.032,111.306 316.366,113.089 316.623 C 114.418 316.814,115.346 317.245,116.136 318.038 C 116.765 318.668,117.927 319.295,118.736 319.441 C 120.565 319.771,121.322 320.159,122.564 321.400 C 123.137 321.973,124.251 322.495,125.241 322.653 C 126.292 322.821,127.389 323.356,128.124 324.059 C 129.190 325.077,131.350 325.992,132.704 325.998 C 132.981 325.999,133.771 326.538,134.459 327.197 C 135.894 328.568,137.782 329.195,140.484 329.198 C 142.311 329.200,142.671 329.391,143.724 330.922 C 144.333 331.806,146.648 332.378,149.671 332.390 C 151.569 332.398,152.063 332.554,152.679 333.336 C 153.939 334.939,154.924 335.200,159.718 335.200 C 166.085 335.200,167.801 335.481,168.412 336.622 C 169.131 337.965,170.453 338.318,175.532 338.524 L 180.064 338.707 181.188 340.053 L 182.312 341.400 215.596 341.507 L 248.880 341.614 250.223 340.147 L 251.567 338.680 255.683 338.519 C 261.065 338.308,261.445 338.209,262.936 336.617 C 264.146 335.324,264.342 335.261,267.508 335.130 C 270.632 335.001,270.883 334.922,272.005 333.722 C 272.869 332.797,273.697 332.375,275.034 332.174 C 276.672 331.928,277.264 331.508,280.429 328.349 C 282.385 326.397,284.140 324.800,284.328 324.800 C 284.517 324.800,284.877 324.350,285.127 323.800 C 285.378 323.250,285.827 322.800,286.126 322.800 C 286.424 322.800,287.315 322.080,288.105 321.200 C 289.088 320.105,289.873 319.600,290.591 319.600 C 293.020 319.600,294.787 317.600,294.798 314.839 C 294.799 314.530,295.475 313.599,296.300 312.770 C 297.125 311.942,298.133 310.907,298.540 310.472 C 298.947 310.036,299.431 309.527,299.615 309.340 C 313.786 294.966,313.137 295.696,313.418 293.820 C 313.628 292.420,313.983 291.803,315.043 290.994 C 315.789 290.425,316.400 289.743,316.400 289.480 C 316.400 289.216,317.046 288.457,317.836 287.794 C 319.206 286.644,319.290 286.425,319.662 283.043 C 320.012 279.859,320.181 279.363,321.326 278.176 C 322.027 277.449,322.886 276.527,323.235 276.127 C 323.584 275.727,324.179 275.220,324.557 275.000 C 325.403 274.508,325.978 272.146,325.990 269.110 C 325.999 266.996,326.088 266.775,327.152 266.225 C 328.618 265.467,328.826 264.904,329.081 261.000 C 329.281 257.949,329.356 257.743,330.690 256.587 C 332.063 255.397,332.095 255.301,332.302 251.658 C 332.490 248.369,332.618 247.876,333.417 247.352 C 334.894 246.385,335.151 244.970,335.281 237.111 L 335.405 229.621 336.802 228.455 L 338.200 227.290 338.400 217.616 L 338.600 207.942 340.000 206.800 L 341.400 205.659 341.600 195.362 C 341.736 188.346,341.941 185.019,342.243 184.918 C 344.385 184.207,344.778 182.494,344.790 173.828 L 344.800 167.057 346.161 165.810 C 349.005 163.205,348.586 155.426,345.494 153.435 C 344.266 152.644,341.996 152.344,340.844 152.820 M343.920 154.162 C 347.690 156.123,348.410 161.597,345.377 165.227 L 344.000 166.876 344.000 173.540 C 344.000 180.801,343.725 182.447,342.323 183.581 C 341.420 184.312,341.395 184.526,341.173 193.664 C 340.936 203.394,340.778 204.320,339.030 206.205 L 338.000 207.317 337.990 215.158 C 337.979 224.005,337.671 225.958,335.983 227.880 L 334.800 229.228 334.798 235.514 C 334.795 242.463,334.467 244.245,332.757 246.579 C 331.842 247.828,331.600 248.580,331.600 250.181 C 331.600 252.951,331.063 254.595,329.621 256.237 C 328.593 257.408,328.400 257.958,328.400 259.717 C 328.400 262.595,327.867 264.195,326.427 265.635 C 325.375 266.687,325.200 267.156,325.198 268.931 C 325.195 271.759,324.538 273.891,323.451 274.603 C 321.391 275.953,319.200 279.224,319.198 280.954 C 319.194 283.865,318.453 285.514,315.763 288.598 C 314.120 290.481,312.976 292.217,312.640 293.335 C 312.209 294.767,310.988 296.235,306.154 301.132 C 295.930 311.490,294.406 313.231,293.942 315.067 C 293.430 317.099,292.270 318.252,290.081 318.906 C 288.439 319.396,285.724 321.685,279.111 328.155 C 277.062 330.159,275.794 331.061,274.457 331.463 C 273.447 331.767,271.952 332.479,271.136 333.044 C 269.470 334.199,267.413 334.776,264.914 334.790 C 263.634 334.798,262.911 335.078,261.914 335.954 C 260.208 337.451,258.150 337.995,254.175 337.998 C 251.124 338.000,250.888 338.064,249.815 339.184 C 247.893 341.190,247.096 341.234,214.578 341.112 C 182.388 340.992,184.067 341.102,181.469 338.941 C 180.502 338.136,179.896 337.999,177.269 337.990 C 173.184 337.977,170.948 337.413,169.320 335.983 C 167.992 334.818,167.901 334.800,163.286 334.790 C 157.757 334.779,155.519 334.338,153.617 332.888 C 152.525 332.055,151.573 331.759,149.280 331.540 C 147.656 331.385,145.953 330.976,145.471 330.627 C 144.992 330.279,144.168 329.687,143.640 329.312 C 143.112 328.936,141.556 328.513,140.183 328.371 C 138.290 328.175,137.266 327.811,135.944 326.864 C 134.985 326.178,133.323 325.354,132.252 325.033 C 131.181 324.712,129.921 324.103,129.452 323.679 C 128.983 323.255,127.735 322.621,126.677 322.271 C 125.620 321.920,124.213 321.177,123.551 320.620 C 122.889 320.063,121.391 319.329,120.223 318.989 C 119.054 318.650,117.775 318.014,117.379 317.577 C 116.983 317.139,115.656 316.493,114.430 316.140 C 112.496 315.583,111.643 314.958,108.000 311.429 C 105.690 309.191,102.990 306.711,102.000 305.916 C 101.010 305.122,99.237 303.558,98.059 302.440 C 96.797 301.243,95.305 300.244,94.423 300.006 C 92.607 299.517,91.911 298.791,90.824 296.256 C 90.366 295.187,89.498 293.835,88.895 293.251 C 85.673 290.130,81.877 285.126,81.244 283.165 C 80.989 282.376,80.470 281.383,80.091 280.959 C 76.245 276.662,74.800 274.569,74.800 273.295 C 74.800 272.878,74.233 271.680,73.539 270.633 C 72.612 269.234,72.142 267.878,71.763 265.517 C 71.436 263.470,70.968 261.994,70.474 261.452 C 69.077 259.915,68.769 258.840,68.537 254.694 C 68.349 251.314,68.146 250.356,67.377 249.200 C 65.897 246.977,65.600 245.779,65.600 242.030 C 65.600 238.941,65.479 238.333,64.605 237.045 C 62.451 233.871,62.400 233.631,62.400 226.674 C 62.400 219.285,62.513 218.949,65.663 216.960 L 67.226 215.974 68.979 216.750 C 71.548 217.886,71.940 218.745,72.326 224.087 C 72.583 227.637,72.842 228.985,73.431 229.817 C 75.033 232.085,75.188 232.638,75.194 236.113 C 75.200 239.805,75.574 241.065,77.403 243.559 C 78.289 244.767,78.400 245.315,78.400 248.472 C 78.400 252.232,78.970 254.278,80.460 255.864 C 81.051 256.493,81.378 257.599,81.626 259.811 C 81.893 262.191,82.250 263.320,83.210 264.816 C 83.892 265.879,84.626 267.384,84.840 268.162 C 85.055 268.939,85.676 270.104,86.220 270.751 C 86.764 271.398,87.485 272.708,87.822 273.662 C 88.159 274.616,88.927 275.938,89.529 276.599 C 91.651 278.927,93.187 281.146,94.140 283.262 C 95.601 286.503,104.277 295.125,107.926 296.963 C 109.802 297.908,111.767 299.425,114.226 301.828 C 116.981 304.521,118.341 305.535,120.163 306.255 C 121.462 306.769,122.812 307.429,123.163 307.722 C 123.513 308.014,125.007 308.753,126.482 309.364 C 127.957 309.975,129.366 310.718,129.613 311.015 C 129.860 311.313,130.920 311.841,131.969 312.190 C 133.018 312.538,134.479 313.268,135.217 313.812 C 135.954 314.356,137.537 315.168,138.735 315.616 C 139.933 316.065,141.348 316.773,141.879 317.191 C 142.411 317.609,143.759 318.254,144.877 318.625 C 145.994 318.997,147.744 319.820,148.766 320.455 C 150.036 321.245,151.453 321.710,153.249 321.926 C 155.183 322.159,156.384 322.579,157.806 323.521 C 159.729 324.795,159.760 324.800,164.969 324.809 C 170.474 324.818,170.479 324.819,174.800 327.221 C 175.875 327.818,176.988 328.000,179.600 328.006 C 182.506 328.012,183.233 328.156,184.600 328.998 C 188.447 331.367,186.407 331.231,216.319 331.111 L 243.812 331.000 245.798 329.685 C 247.969 328.246,248.299 328.144,251.735 327.850 C 253.020 327.740,254.460 327.368,254.935 327.022 C 255.411 326.677,256.236 326.085,256.769 325.706 C 257.372 325.278,258.923 324.916,260.871 324.748 C 263.556 324.517,264.195 324.312,265.336 323.310 C 266.068 322.667,267.497 321.909,268.511 321.625 C 269.587 321.324,270.845 320.586,271.533 319.854 C 273.714 317.533,275.141 316.384,276.599 315.774 C 280.331 314.215,289.043 305.443,290.775 301.501 C 291.270 300.374,293.778 297.519,298.211 293.036 C 303.550 287.637,305.099 285.820,305.884 284.036 C 306.424 282.806,307.196 281.440,307.599 281.000 C 308.002 280.560,308.641 279.125,309.020 277.812 C 309.398 276.498,310.314 274.543,311.054 273.467 C 311.794 272.391,312.400 271.187,312.400 270.793 C 312.400 270.398,313.006 269.351,313.746 268.465 C 314.486 267.579,315.309 265.987,315.575 264.927 C 315.841 263.867,316.591 262.069,317.241 260.931 C 318.011 259.583,318.531 257.966,318.733 256.293 C 318.958 254.420,319.388 253.202,320.321 251.794 C 321.359 250.226,321.605 249.443,321.629 247.631 C 321.685 243.362,322.174 241.279,323.429 239.971 L 324.600 238.749 324.800 232.275 L 325.000 225.800 326.400 223.857 L 327.800 221.913 328.000 213.057 C 328.179 205.123,328.283 204.061,329.000 202.867 C 331.306 199.026,331.199 199.681,331.199 189.474 C 331.200 179.652,331.278 179.102,332.934 177.284 C 333.697 176.447,333.792 175.706,334.038 168.631 C 334.328 160.321,334.295 160.465,336.422 158.149 C 339.928 154.329,342.061 153.195,343.920 154.162 " stroke="none" fill="#9c9c9c" fill-rule="evenodd"></path><path id="path4" d="M259.141 36.243 C 257.100 37.940,256.806 38.390,256.320 40.568 C 256.112 41.497,255.405 42.769,254.678 43.521 L 253.400 44.843 253.198 52.801 L 252.996 60.760 251.598 62.202 L 250.200 63.644 250.200 101.990 L 250.200 140.336 251.053 141.268 C 252.897 143.282,253.200 144.489,253.200 149.820 C 253.200 157.669,255.268 160.390,259.983 158.746 C 262.153 157.989,262.400 156.798,262.400 147.068 L 262.400 138.510 261.206 137.007 C 259.202 134.486,259.205 134.529,259.202 101.726 C 259.200 69.104,259.177 69.515,261.125 67.475 C 262.198 66.351,262.200 66.338,262.400 58.675 C 262.595 51.179,262.954 49.200,264.117 49.200 C 264.947 49.200,265.600 46.238,265.600 42.467 C 265.600 37.974,265.272 37.259,262.490 35.697 L 260.882 34.795 259.141 36.243 M263.097 37.600 C 265.265 37.600,265.646 45.226,263.606 47.793 C 261.877 49.968,261.605 51.449,261.602 58.686 L 261.600 65.172 260.358 66.587 C 258.437 68.774,258.420 69.093,258.410 101.645 C 258.399 134.828,258.458 135.892,260.406 137.720 L 261.600 138.841 261.600 147.434 L 261.600 156.027 260.386 157.213 C 258.668 158.893,257.398 158.777,255.523 156.766 L 254.000 155.133 254.000 149.864 C 254.000 143.769,253.671 142.267,252.000 140.741 L 250.788 139.634 250.894 101.871 L 251.000 64.108 252.300 62.893 C 253.015 62.225,253.625 61.616,253.655 61.540 C 253.686 61.463,253.821 57.752,253.955 53.294 L 254.200 45.188 255.335 44.283 C 256.117 43.660,256.645 42.698,257.029 41.189 C 257.363 39.879,257.928 38.759,258.436 38.400 C 258.902 38.070,259.670 37.428,260.142 36.974 C 260.973 36.173,261.026 36.170,261.826 36.874 C 262.280 37.273,262.852 37.600,263.097 37.600 M133.370 55.767 L 131.525 57.534 131.663 61.667 C 131.791 65.485,131.893 65.935,133.001 67.568 L 134.200 69.337 134.400 76.568 L 134.600 83.800 136.000 85.745 L 137.400 87.690 137.400 114.823 L 137.400 141.956 136.000 143.400 L 134.600 144.844 134.600 154.993 C 134.600 164.616,134.643 165.200,135.426 166.271 C 136.730 168.054,138.898 168.962,140.549 168.417 C 143.268 167.520,143.378 167.168,143.600 158.659 C 143.795 151.180,144.155 149.200,145.317 149.200 C 146.708 149.200,146.800 147.056,146.800 114.472 L 146.800 82.518 145.810 81.159 C 144.073 78.774,143.870 77.916,143.633 71.980 C 143.436 67.070,143.275 65.975,142.601 64.980 C 141.299 63.056,140.800 61.613,140.800 59.773 C 140.800 54.824,136.675 52.600,133.370 55.767 M138.000 56.355 C 139.596 57.323,139.811 57.625,139.900 59.023 C 140.131 62.651,140.484 63.996,141.566 65.357 C 142.666 66.742,142.696 66.914,142.878 72.887 C 143.073 79.299,143.337 80.363,145.064 81.721 L 146.000 82.458 146.000 114.374 L 146.000 146.290 144.806 147.793 C 143.077 149.968,142.805 151.449,142.802 158.694 L 142.800 165.187 141.700 166.362 C 139.847 168.342,139.020 168.325,136.960 166.265 L 135.159 164.464 135.280 154.826 L 135.400 145.188 136.487 144.294 C 138.395 142.726,138.400 142.645,138.400 114.561 C 138.400 85.703,138.439 86.240,136.196 84.162 C 135.210 83.247,135.200 83.171,135.200 76.445 C 135.200 69.327,135.005 68.234,133.389 66.314 C 131.789 64.412,131.887 57.886,133.529 57.037 C 134.150 56.716,134.892 56.171,135.178 55.826 C 135.831 55.040,135.833 55.040,138.000 56.355 M339.800 155.584 C 338.480 156.640,336.770 158.165,336.000 158.973 L 334.600 160.443 334.399 168.336 L 334.199 176.230 332.899 177.806 L 331.600 179.382 331.600 188.841 C 331.600 198.984,331.329 200.760,329.486 202.720 C 328.641 203.618,328.590 204.075,328.386 212.531 C 328.162 221.814,327.998 222.736,326.189 224.886 C 325.259 225.991,325.199 226.353,325.176 230.931 C 325.145 237.360,324.796 239.342,323.480 240.561 C 322.224 241.725,322.063 242.372,321.914 246.856 C 321.809 250.031,321.694 250.459,320.492 252.132 C 319.472 253.552,319.106 254.571,318.832 256.758 C 318.593 258.661,318.091 260.245,317.273 261.682 C 316.609 262.847,315.937 264.496,315.780 265.347 C 315.622 266.198,314.990 267.467,314.375 268.167 C 313.761 268.867,312.903 270.373,312.470 271.514 C 312.036 272.654,311.213 274.144,310.641 274.824 C 310.068 275.505,309.599 276.273,309.598 276.531 C 309.592 277.708,308.686 280.076,307.854 281.088 C 307.351 281.699,306.629 282.989,306.252 283.953 C 305.393 286.142,303.986 287.805,297.159 294.703 C 293.077 298.827,291.445 300.777,290.626 302.508 C 289.120 305.691,280.665 314.202,277.536 315.684 C 276.333 316.253,274.190 317.807,272.774 319.135 C 270.979 320.820,269.689 321.680,268.510 321.979 C 267.581 322.214,266.225 322.929,265.497 323.568 C 264.351 324.575,263.729 324.769,260.837 325.021 C 258.010 325.268,257.309 325.479,256.250 326.402 C 254.746 327.714,254.210 327.895,250.444 328.368 C 248.363 328.629,247.258 328.982,246.608 329.592 C 244.526 331.549,243.734 331.600,215.587 331.600 C 187.229 331.600,187.869 331.644,184.636 329.450 C 183.301 328.544,182.671 328.400,180.042 328.400 C 176.403 328.400,174.805 327.990,172.671 326.509 C 171.147 325.452,170.797 325.390,165.175 325.181 C 159.580 324.974,159.197 324.907,157.704 323.872 C 155.918 322.634,154.013 322.000,152.083 322.000 C 150.754 322.000,148.742 321.177,147.572 320.155 C 147.227 319.853,145.914 319.252,144.655 318.819 C 143.396 318.386,141.914 317.675,141.360 317.240 C 140.807 316.805,139.420 316.146,138.277 315.775 C 137.135 315.403,135.828 314.762,135.373 314.349 C 134.918 313.936,133.400 313.149,132.000 312.600 C 130.600 312.051,129.082 311.270,128.627 310.864 C 128.172 310.458,126.681 309.717,125.312 309.219 C 123.944 308.720,122.625 308.071,122.382 307.778 C 122.138 307.484,121.017 306.938,119.892 306.564 C 118.345 306.050,117.155 305.193,115.022 303.058 C 111.633 299.665,109.304 297.822,107.404 297.027 C 103.958 295.587,95.132 286.646,93.752 283.196 C 93.373 282.249,91.920 280.108,90.523 278.438 C 89.126 276.767,87.806 274.749,87.591 273.954 C 87.375 273.158,86.671 271.844,86.026 271.033 C 85.382 270.222,84.731 268.983,84.580 268.279 C 84.428 267.576,83.796 266.241,83.175 265.313 C 81.853 263.340,81.205 261.252,81.202 258.955 C 81.201 257.733,80.893 256.923,80.006 255.807 C 78.461 253.863,78.005 252.135,78.000 248.200 C 77.996 244.942,77.950 244.807,75.821 241.800 C 75.203 240.926,74.997 239.771,74.821 236.181 C 74.626 232.203,74.491 231.547,73.690 230.695 C 72.432 229.357,72.000 227.564,72.000 223.683 C 72.000 219.580,71.446 218.384,68.995 217.198 L 67.168 216.313 65.536 217.445 C 62.769 219.362,62.732 219.497,62.874 227.294 C 62.999 234.192,63.009 234.260,64.085 235.537 C 65.507 237.226,65.995 239.112,65.998 242.935 C 66.000 245.772,66.133 246.308,67.400 248.573 C 68.711 250.918,68.800 251.305,68.800 254.683 C 68.800 257.848,68.920 258.464,69.778 259.730 C 71.505 262.275,71.760 262.950,72.022 265.683 C 72.218 267.727,72.537 268.704,73.362 269.786 C 73.957 270.566,74.706 272.087,75.026 273.164 C 75.422 274.495,76.483 276.159,78.339 278.356 C 79.841 280.135,81.278 282.267,81.531 283.095 C 81.960 284.498,85.866 289.589,88.976 292.800 C 89.722 293.570,90.639 295.010,91.014 296.000 C 91.849 298.205,93.131 299.443,95.137 299.983 C 95.976 300.209,97.116 300.890,97.670 301.497 C 98.225 302.104,99.651 303.446,100.839 304.480 C 106.550 309.450,107.965 310.752,109.755 312.687 C 111.152 314.198,112.309 315.004,113.943 315.605 C 115.184 316.062,116.706 316.801,117.324 317.248 C 117.943 317.694,119.440 318.401,120.652 318.818 C 121.865 319.235,123.392 320.027,124.046 320.578 C 124.701 321.128,125.923 321.764,126.763 321.990 C 127.603 322.216,128.985 322.872,129.833 323.448 C 130.682 324.024,132.211 324.743,133.231 325.046 C 134.252 325.349,135.767 326.138,136.598 326.799 C 137.784 327.741,138.507 328.000,139.955 328.001 C 141.735 328.001,143.178 328.574,145.360 330.144 C 145.993 330.600,147.571 331.020,149.440 331.229 C 151.646 331.477,152.833 331.831,153.743 332.515 C 155.746 334.019,156.279 334.133,162.474 334.373 C 168.105 334.591,168.396 334.643,169.474 335.646 C 171.066 337.124,172.821 337.600,176.680 337.600 C 179.911 337.600,182.400 338.282,182.400 339.167 C 182.400 340.691,184.620 340.800,215.748 340.800 C 247.767 340.800,247.612 340.809,249.725 338.846 C 250.739 337.904,251.254 337.777,254.925 337.566 C 259.153 337.322,260.076 337.052,262.359 335.390 C 263.365 334.657,264.226 334.400,265.672 334.400 C 267.679 334.400,270.078 333.616,271.213 332.588 C 271.567 332.268,272.852 331.664,274.069 331.245 C 275.783 330.655,276.952 329.821,279.258 327.542 C 285.173 321.694,288.153 319.225,290.069 318.582 C 292.266 317.847,292.793 317.304,293.602 314.947 C 294.288 312.949,296.934 309.923,305.709 301.101 C 310.390 296.396,311.773 294.752,312.365 293.196 C 312.972 291.598,316.086 287.288,317.284 286.386 C 317.974 285.868,318.800 283.059,318.800 281.236 C 318.800 279.345,322.317 274.000,323.561 274.000 C 324.161 274.000,324.800 271.942,324.800 270.007 C 324.800 267.622,325.326 266.140,326.676 264.725 C 327.510 263.851,327.756 263.087,327.996 260.638 C 328.185 258.713,328.564 257.247,329.046 256.576 C 330.700 254.275,331.199 252.955,331.199 250.880 C 331.200 248.943,332.012 246.525,332.844 245.984 C 333.911 245.290,334.400 242.075,334.400 235.764 L 334.400 229.228 335.537 227.914 C 337.388 225.774,337.600 224.535,337.602 215.840 C 337.604 207.237,337.487 207.840,339.800 204.569 C 340.528 203.540,340.618 202.608,340.800 194.219 C 340.993 185.300,341.294 183.200,342.375 183.200 C 343.206 183.200,343.600 180.290,343.600 174.154 C 343.600 167.713,344.128 164.800,345.294 164.800 C 345.975 164.800,346.800 161.986,346.800 159.667 C 346.800 156.948,346.170 155.889,343.749 154.533 L 342.200 153.666 339.800 155.584 M344.297 156.400 C 346.350 156.400,346.686 161.026,344.806 163.393 C 343.079 165.566,342.805 167.049,342.802 174.240 L 342.800 180.680 341.500 182.440 L 340.200 184.200 340.000 193.675 L 339.800 203.150 338.725 204.275 C 336.970 206.113,336.800 207.138,336.800 215.852 C 336.800 224.480,336.722 224.922,334.851 226.925 C 333.808 228.042,333.798 228.110,333.600 235.794 C 333.414 242.979,333.339 243.605,332.550 244.469 C 331.149 246.003,330.755 247.104,330.421 250.419 C 330.150 253.113,329.926 253.778,328.903 254.944 C 327.878 256.111,327.660 256.761,327.414 259.384 C 327.169 261.997,326.949 262.658,325.938 263.810 C 324.920 264.969,324.702 265.631,324.421 268.421 C 324.107 271.538,324.017 271.759,322.339 273.539 C 318.204 277.929,318.320 277.729,318.004 280.964 C 317.717 283.894,317.642 284.058,315.354 286.804 C 312.858 289.799,312.342 290.606,311.566 292.728 C 311.279 293.510,308.761 296.403,305.440 299.765 C 296.461 308.855,293.870 311.818,293.120 313.857 C 292.226 316.289,291.051 317.479,288.937 318.095 C 287.216 318.597,285.473 320.043,277.609 327.495 C 275.460 329.531,274.145 330.465,273.177 330.643 C 271.694 330.917,270.048 331.806,269.392 332.688 C 269.148 333.016,267.686 333.367,265.749 333.562 C 262.823 333.857,260.000 334.879,260.000 335.643 C 260.000 336.241,258.399 336.561,254.325 336.777 C 250.387 336.985,249.960 337.088,248.925 338.076 C 246.887 340.020,247.242 340.000,215.548 340.000 C 184.933 340.000,184.323 339.972,183.459 338.504 C 182.805 337.393,180.498 336.800,176.832 336.800 C 173.508 336.800,171.200 336.296,171.200 335.571 C 171.200 334.422,167.611 333.600,162.574 333.594 C 157.355 333.588,156.988 333.507,154.636 331.843 C 154.020 331.407,152.167 330.880,150.264 330.598 C 147.648 330.212,146.721 329.889,145.811 329.046 C 144.569 327.894,144.189 327.771,140.675 327.389 C 138.808 327.186,138.151 326.914,137.345 326.009 C 136.635 325.212,135.795 324.800,134.476 324.602 C 133.178 324.408,132.163 323.918,131.137 322.991 C 130.118 322.070,129.094 321.573,127.824 321.383 C 126.580 321.196,125.741 320.797,125.232 320.149 C 124.422 319.120,122.126 318.000,120.827 318.000 C 120.387 318.000,119.421 317.467,118.680 316.816 C 117.915 316.145,116.494 315.445,115.396 315.199 C 113.708 314.821,112.966 314.268,109.602 310.883 C 107.480 308.747,105.037 306.466,104.172 305.813 C 102.461 304.520,99.925 302.298,98.618 300.945 C 98.164 300.475,97.102 299.900,96.258 299.667 C 94.344 299.139,92.192 296.969,91.453 294.823 C 91.143 293.925,90.415 292.698,89.835 292.095 C 85.846 287.955,82.131 283.022,81.842 281.481 C 81.616 280.279,80.868 279.292,77.235 275.400 C 76.571 274.689,75.908 273.330,75.609 272.064 C 75.294 270.735,74.668 269.483,73.952 268.750 C 72.981 267.758,72.800 267.244,72.798 265.486 C 72.795 262.557,72.199 260.740,70.803 259.402 C 69.625 258.275,69.600 258.168,69.600 254.312 C 69.600 250.122,69.126 248.348,67.655 247.038 C 66.921 246.384,66.800 245.838,66.800 243.193 C 66.800 238.601,66.205 236.049,64.794 234.594 L 63.600 233.362 63.600 226.689 L 63.600 220.016 65.163 219.219 C 66.023 218.780,66.794 218.219,66.876 217.971 C 66.970 217.691,67.778 217.962,69.013 218.687 L 71.000 219.853 71.246 224.626 C 71.381 227.252,71.516 229.541,71.546 229.713 C 71.576 229.886,72.230 230.657,73.000 231.427 C 74.396 232.822,74.400 232.838,74.410 236.513 C 74.422 241.179,74.847 243.007,76.160 244.040 C 77.107 244.785,77.200 245.115,77.202 247.729 C 77.206 252.475,77.815 255.225,79.136 256.459 C 80.140 257.397,80.319 257.920,80.565 260.635 C 80.869 263.998,81.249 265.009,82.610 266.080 C 83.215 266.555,83.577 267.403,83.758 268.765 C 83.963 270.316,84.319 271.036,85.367 272.025 C 86.259 272.866,86.795 273.808,86.957 274.821 C 87.139 275.962,87.957 277.215,90.201 279.788 C 91.850 281.680,93.200 283.593,93.200 284.040 C 93.200 285.325,93.851 286.243,97.027 289.440 C 98.662 291.086,100.000 292.571,100.000 292.739 C 100.000 292.908,100.810 293.617,101.800 294.315 C 102.790 295.013,103.600 295.764,103.600 295.984 C 103.600 296.411,106.459 298.000,107.229 298.000 C 107.912 298.000,110.058 299.799,113.741 303.461 C 116.313 306.017,117.407 306.824,118.811 307.196 C 119.795 307.458,120.962 308.007,121.405 308.417 C 122.339 309.280,124.859 310.400,125.868 310.400 C 126.250 310.400,127.111 310.932,127.782 311.583 C 128.507 312.285,129.846 312.982,131.075 313.296 C 132.302 313.610,133.546 314.257,134.125 314.881 C 135.027 315.855,137.329 316.792,138.830 316.798 C 139.177 316.799,139.889 317.256,140.412 317.813 C 140.935 318.369,142.361 319.113,143.581 319.466 C 144.802 319.818,146.391 320.623,147.114 321.253 C 147.837 321.884,148.557 322.406,148.714 322.412 C 151.463 322.531,155.089 323.332,155.772 323.971 C 157.228 325.334,158.868 325.690,164.878 325.948 C 170.338 326.182,170.817 326.266,171.616 327.125 C 172.904 328.508,174.181 328.857,178.800 329.085 C 182.590 329.273,183.092 329.389,183.939 330.271 C 185.808 332.218,185.424 332.192,213.982 332.318 C 243.631 332.449,245.380 332.351,247.364 330.447 C 248.463 329.392,248.976 329.228,251.990 328.971 C 255.051 328.709,255.498 328.562,256.590 327.461 C 257.666 326.377,258.220 326.188,261.595 325.751 C 264.848 325.329,265.517 325.112,266.276 324.230 C 266.843 323.571,267.873 323.047,269.137 322.776 C 270.554 322.472,271.518 321.936,272.554 320.876 C 275.712 317.646,276.666 316.907,278.248 316.462 C 281.359 315.588,291.595 304.747,291.599 302.323 C 291.600 301.558,291.938 301.046,292.766 300.557 C 293.407 300.178,294.125 299.445,294.360 298.928 C 294.596 298.411,295.254 297.776,295.824 297.516 C 296.394 297.257,297.125 296.531,297.449 295.905 C 297.773 295.278,298.476 294.566,299.012 294.322 C 299.547 294.078,300.092 293.539,300.224 293.124 C 300.356 292.709,301.155 291.933,302.000 291.400 C 302.845 290.867,303.645 290.090,303.777 289.674 C 303.909 289.258,304.547 288.445,305.194 287.868 C 305.937 287.206,306.609 286.003,307.013 284.613 C 307.366 283.400,308.018 282.153,308.461 281.842 C 309.324 281.238,310.354 278.792,310.382 277.277 C 310.392 276.770,310.928 275.870,311.573 275.277 C 312.312 274.598,312.929 273.464,313.244 272.206 C 313.570 270.899,314.187 269.792,315.033 268.994 C 316.009 268.075,316.396 267.290,316.618 265.788 C 316.812 264.466,317.294 263.360,318.055 262.486 C 318.685 261.763,319.201 261.133,319.203 261.086 C 319.326 257.596,320.101 254.198,320.955 253.407 C 322.234 252.221,322.794 250.100,322.803 246.400 C 322.813 242.773,323.067 241.696,323.982 241.406 C 325.270 240.997,325.673 239.152,325.902 232.620 L 326.125 226.241 327.272 225.194 C 328.825 223.775,329.195 221.245,329.198 212.019 L 329.200 204.638 330.394 203.406 C 332.088 201.658,332.400 199.390,332.400 188.807 C 332.400 180.098,332.434 179.693,333.237 178.966 C 334.836 177.520,334.984 176.747,335.194 168.800 L 335.400 161.000 337.301 159.110 C 338.346 158.070,339.750 156.936,340.421 156.589 C 341.092 156.242,341.745 155.688,341.872 155.357 C 342.065 154.854,342.243 154.889,342.977 155.578 C 343.458 156.030,344.052 156.400,344.297 156.400 " stroke="none" fill="#747474" fill-rule="evenodd"></path></g></svg>